<svg width="400" height="400" viewBox="0 0 400 400" xmlns="http://www.w3.org/2000/svg">
  <!-- Background -->
  <rect width="400" height="400" fill="#f3f4f6"/>
  
  <!-- Bearbrick outline -->
  <g transform="translate(50, 20) scale(0.3, 0.3)" fill="#d1d5db" stroke="#9ca3af" stroke-width="2">
    <!-- Main body -->
    <rect x="100" y="180" width="180" height="200" rx="10"/>
    
    <!-- Head -->
    <rect x="120" y="80" width="140" height="120" rx="20"/>
    
    <!-- Arms -->
    <rect x="50" y="200" width="40" height="100" rx="15"/>
    <rect x="290" y="200" width="40" height="100" rx="15"/>
    
    <!-- Legs -->
    <rect x="130" y="390" width="40" height="80" rx="15"/>
    <rect x="210" y="390" width="40" height="80" rx="15"/>
    
    <!-- Ears -->
    <circle cx="140" cy="100" r="15"/>
    <circle cx="240" cy="100" r="15"/>
    
    <!-- Eyes -->
    <circle cx="155" cy="130" r="8" fill="#9ca3af"/>
    <circle cx="225" cy="130" r="8" fill="#9ca3af"/>
  </g>
  
  <!-- Question mark -->
  <g transform="translate(200, 200)" fill="white" stroke="#6b7280" stroke-width="3">
    <!-- Question mark path -->
    <path d="M -25 -30 Q -25 -45 -10 -45 Q 5 -45 5 -30 Q 5 -20 -5 -15 L -5 -5 M -5 5 L -5 15" 
          fill="none" stroke="white" stroke-width="8" stroke-linecap="round"/>
    <circle cx="-5" cy="25" r="6" fill="white"/>
  </g>
  
  <!-- Outer border -->
  <rect x="0" y="0" width="400" height="400" fill="none" stroke="#e5e7eb" stroke-width="2" rx="8"/>
</svg>