<?xml version="1.0" encoding="utf-8" ?>
<svg baseProfile="full" height="1024" version="1.1" width="1024" xmlns="http://www.w3.org/2000/svg" xmlns:ev="http://www.w3.org/2001/xml-events" xmlns:xlink="http://www.w3.org/1999/xlink"><defs /><polygon fill="black" points="635.0,985.5 634.0,985.5 633.0,985.5 632.0,985.5 631.0,985.5 630.0,985.5 629.0,985.5 628.0,985.5 627.0,985.5 626.0,985.5 625.0,985.5 624.0,985.5 623.0,985.5 622.0,985.5 621.0,985.5 620.0,985.5 619.0,985.5 618.0,985.5 617.0,985.5 616.0,985.5 615.0,985.5 614.0,985.5 613.0,985.5 612.0,985.5 611.0,985.5 610.0,985.5 609.0,985.5 608.0,985.5 607.0,985.5 606.0,985.5 605.0,985.5 604.0,985.5 603.0,985.5 602.0,985.5 601.0,985.5 600.0,985.5 599.0,985.5 598.0,985.5 597.0,985.5 596.0,985.5 595.0,985.5 594.0,985.5 593.0,985.5 592.0,985.5 591.0,985.5 590.0,985.5 589.0,985.5 588.0,985.5 587.0,985.5 586.0,985.5 585.0,985.5 584.0,985.5 583.0,985.5 582.0,985.5 581.0,985.5 580.0,985.5 579.0,985.5 578.0,985.5 577.0,985.5 576.0,985.5 575.0,985.5 574.0,985.5 573.0,985.5 572.0,985.5 571.0,985.5 570.0,985.5 569.0,985.5 568.0,985.5 567.0,985.5 566.0,985.5 565.0,985.5 564.0,985.5 563.0,985.5 562.0,985.5 561.0,985.5 560.0,985.5 559.0,985.5 558.0,985.5 557.0,985.5 556.0,985.5 555.0,985.5 554.0,985.5 553.0,985.5 552.0,985.5 551.0,985.5 550.0,985.5 549.0,985.5 548.0,985.5 547.0,985.5 546.0,985.5 545.0,985.5 544.0,985.5 543.0,985.5 542.0,985.5 541.0,985.5 540.0,985.5 539.0,985.5 538.0,985.5 537.0,985.5 536.0,985.5 535.0,985.5 534.0,985.5 533.5,985.0 533.0,984.5 532.0,984.5 531.5,984.0 531.0,983.5 530.0,983.5 529.5,983.0 529.0,982.5 528.5,982.0 528.0,981.5 527.5,981.0 527.0,980.5 526.5,980.0 526.0,979.5 525.5,979.0 525.0,978.5 524.5,978.0 524.5,977.0 524.0,976.5 523.5,976.0 523.5,975.0 523.0,974.5 522.5,974.0 522.5,973.0 522.5,972.0 522.5,971.0 522.5,970.0 522.5,969.0 522.5,968.0 522.5,967.0 522.5,966.0 522.5,965.0 522.5,964.0 522.5,963.0 522.5,962.0 522.5,961.0 522.5,960.0 522.5,959.0 522.5,958.0 522.5,957.0 522.5,956.0 522.5,955.0 522.5,954.0 522.5,953.0 522.5,952.0 522.5,951.0 522.5,950.0 522.5,949.0 522.5,948.0 522.5,947.0 522.5,946.0 522.5,945.0 522.5,944.0 522.5,943.0 522.5,942.0 522.5,941.0 522.5,940.0 522.5,939.0 522.5,938.0 522.5,937.0 522.5,936.0 522.5,935.0 522.5,934.0 522.5,933.0 522.5,932.0 522.5,931.0 522.5,930.0 522.5,929.0 522.5,928.0 522.5,927.0 522.5,926.0 522.5,925.0 522.5,924.0 522.5,923.0 522.5,922.0 522.5,921.0 522.5,920.0 522.5,919.0 522.5,918.0 522.5,917.0 522.5,916.0 522.5,915.0 522.5,914.0 522.5,913.0 522.5,912.0 522.5,911.0 522.5,910.0 522.5,909.0 522.5,908.0 522.5,907.0 522.5,906.0 522.5,905.0 522.5,904.0 522.5,903.0 522.5,902.0 522.5,901.0 522.5,900.0 522.5,899.0 522.5,898.0 522.5,897.0 522.5,896.0 522.5,895.0 522.5,894.0 522.5,893.0 522.5,892.0 522.5,891.0 522.5,890.0 522.5,889.0 522.5,888.0 522.5,887.0 522.5,886.0 522.5,885.0 522.5,884.0 522.5,883.0 522.5,882.0 522.5,881.0 522.5,880.0 522.5,879.0 522.5,878.0 522.5,877.0 522.5,876.0 522.5,875.0 522.5,874.0 522.5,873.0 522.5,872.0 522.5,871.0 522.5,870.0 522.5,869.0 522.5,868.0 522.5,867.0 522.5,866.0 522.5,865.0 523.0,864.5 523.5,864.0 523.5,863.0 523.5,862.0 524.0,861.5 524.5,861.0 524.5,860.0 525.0,859.5 525.5,859.0 525.5,858.0 526.0,857.5 526.5,857.0 527.0,856.5 527.5,856.0 527.5,855.0 528.0,854.5 528.5,854.0 529.0,853.5 529.5,853.0 530.0,852.5 530.5,852.0 531.0,851.5 531.5,851.0 532.0,850.5 532.5,850.0 533.0,849.5 533.5,849.0 533.5,848.0 533.5,847.0 533.5,846.0 533.5,845.0 533.5,844.0 533.5,843.0 533.5,842.0 533.5,841.0 533.5,840.0 533.5,839.0 533.5,838.0 533.5,837.0 533.5,836.0 533.5,835.0 533.5,834.0 533.5,833.0 533.5,832.0 533.5,831.0 533.5,830.0 533.5,829.0 533.5,828.0 533.5,827.0 533.5,826.0 533.5,825.0 533.5,824.0 533.5,823.0 533.5,822.0 533.5,821.0 533.5,820.0 533.5,819.0 533.5,818.0 533.5,817.0 533.5,816.0 533.5,815.0 533.5,814.0 533.5,813.0 533.5,812.0 533.5,811.0 533.5,810.0 533.5,809.0 533.5,808.0 533.5,807.0 533.5,806.0 533.5,805.0 533.5,804.0 533.5,803.0 533.5,802.0 533.5,801.0 533.5,800.0 533.5,799.0 533.5,798.0 533.5,797.0 534.0,796.5 534.5,796.0 534.0,795.5 533.0,795.5 532.5,796.0 532.0,796.5 531.5,797.0 531.0,797.5 530.5,798.0 530.0,798.5 529.0,798.5 528.5,799.0 528.0,799.5 527.0,799.5 526.0,799.5 525.5,800.0 525.0,800.5 524.0,800.5 523.0,800.5 522.5,801.0 522.0,801.5 521.0,801.5 520.0,801.5 519.0,801.5 518.5,802.0 518.0,802.5 517.0,802.5 516.0,802.5 515.0,802.5 514.0,802.5 513.0,802.5 512.0,802.5 511.0,802.5 510.0,802.5 509.0,802.5 508.0,802.5 507.0,802.5 506.0,802.5 505.5,802.0 505.0,801.5 504.0,801.5 503.0,801.5 502.0,801.5 501.0,801.5 500.5,801.0 500.0,800.5 499.0,800.5 498.0,800.5 497.5,800.0 497.0,799.5 496.0,799.5 495.0,799.5 494.5,799.0 494.0,798.5 493.0,798.5 492.5,798.0 492.0,797.5 491.5,797.0 491.0,796.5 490.5,796.0 490.0,795.5 489.0,795.5 488.5,796.0 489.0,796.5 489.5,797.0 489.5,798.0 489.5,799.0 489.5,800.0 489.5,801.0 489.5,802.0 489.5,803.0 489.5,804.0 489.5,805.0 489.5,806.0 489.5,807.0 489.5,808.0 489.5,809.0 489.5,810.0 489.5,811.0 489.5,812.0 489.5,813.0 489.5,814.0 489.5,815.0 489.5,816.0 489.5,817.0 489.5,818.0 489.5,819.0 489.5,820.0 489.5,821.0 489.5,822.0 489.5,823.0 489.5,824.0 489.5,825.0 489.5,826.0 489.5,827.0 489.5,828.0 489.5,829.0 489.5,830.0 489.5,831.0 489.5,832.0 489.5,833.0 489.5,834.0 489.5,835.0 489.5,836.0 489.5,837.0 489.5,838.0 489.5,839.0 489.5,840.0 489.5,841.0 489.5,842.0 489.5,843.0 489.5,844.0 489.5,845.0 489.5,846.0 489.5,847.0 489.5,848.0 489.5,849.0 490.0,849.5 490.5,850.0 491.0,850.5 491.5,851.0 492.0,851.5 492.5,852.0 493.0,852.5 493.5,853.0 494.0,853.5 494.5,854.0 495.0,854.5 495.5,855.0 496.0,855.5 496.5,856.0 496.5,857.0 497.0,857.5 497.5,858.0 497.5,859.0 498.0,859.5 498.5,860.0 498.5,861.0 499.0,861.5 499.5,862.0 499.5,863.0 500.0,863.5 500.5,864.0 500.5,865.0 500.5,866.0 500.5,867.0 500.5,868.0 500.5,869.0 500.5,870.0 500.5,871.0 500.5,872.0 500.5,873.0 500.5,874.0 500.5,875.0 500.5,876.0 500.5,877.0 500.5,878.0 500.5,879.0 500.5,880.0 500.5,881.0 500.5,882.0 500.5,883.0 500.5,884.0 500.5,885.0 500.5,886.0 500.5,887.0 500.5,888.0 500.5,889.0 500.5,890.0 500.5,891.0 500.5,892.0 500.5,893.0 500.5,894.0 500.5,895.0 500.5,896.0 500.5,897.0 500.5,898.0 500.5,899.0 500.5,900.0 500.5,901.0 500.5,902.0 500.5,903.0 500.5,904.0 500.5,905.0 500.5,906.0 500.5,907.0 500.5,908.0 500.5,909.0 500.5,910.0 500.5,911.0 500.5,912.0 500.5,913.0 500.5,914.0 500.5,915.0 500.5,916.0 500.5,917.0 500.5,918.0 500.5,919.0 500.5,920.0 500.5,921.0 500.5,922.0 500.5,923.0 500.5,924.0 500.5,925.0 500.5,926.0 500.5,927.0 500.5,928.0 500.5,929.0 500.5,930.0 500.5,931.0 500.5,932.0 500.5,933.0 500.5,934.0 500.5,935.0 500.5,936.0 500.5,937.0 500.5,938.0 500.5,939.0 500.5,940.0 500.5,941.0 500.5,942.0 500.5,943.0 500.5,944.0 500.5,945.0 500.5,946.0 500.5,947.0 500.5,948.0 500.5,949.0 500.5,950.0 500.5,951.0 500.5,952.0 500.5,953.0 500.5,954.0 500.5,955.0 500.5,956.0 500.5,957.0 500.5,958.0 500.5,959.0 500.5,960.0 500.5,961.0 500.5,962.0 500.5,963.0 500.5,964.0 500.5,965.0 500.5,966.0 500.5,967.0 500.5,968.0 500.5,969.0 500.5,970.0 500.5,971.0 500.5,972.0 500.5,973.0 500.5,974.0 500.0,974.5 499.5,975.0 499.5,976.0 499.0,976.5 498.5,977.0 498.5,978.0 498.0,978.5 497.5,979.0 497.0,979.5 496.5,980.0 496.0,980.5 495.5,981.0 495.0,981.5 494.5,982.0 494.0,982.5 493.5,983.0 493.0,983.5 492.0,983.5 491.5,984.0 491.0,984.5 490.0,984.5 489.0,984.5 488.5,985.0 488.0,985.5 487.0,985.5 486.0,985.5 485.0,985.5 484.0,985.5 483.0,985.5 482.0,985.5 481.0,985.5 480.0,985.5 479.0,985.5 478.0,985.5 477.0,985.5 476.0,985.5 475.0,985.5 474.0,985.5 473.0,985.5 472.0,985.5 471.0,985.5 470.0,985.5 469.0,985.5 468.0,985.5 467.0,985.5 466.0,985.5 465.0,985.5 464.0,985.5 463.0,985.5 462.0,985.5 461.0,985.5 460.0,985.5 459.0,985.5 458.0,985.5 457.0,985.5 456.0,985.5 455.0,985.5 454.0,985.5 453.0,985.5 452.0,985.5 451.0,985.5 450.0,985.5 449.0,985.5 448.0,985.5 447.0,985.5 446.0,985.5 445.0,985.5 444.0,985.5 443.0,985.5 442.0,985.5 441.0,985.5 440.0,985.5 439.0,985.5 438.0,985.5 437.0,985.5 436.0,985.5 435.0,985.5 434.0,985.5 433.0,985.5 432.0,985.5 431.0,985.5 430.0,985.5 429.0,985.5 428.0,985.5 427.0,985.5 426.0,985.5 425.0,985.5 424.0,985.5 423.0,985.5 422.0,985.5 421.0,985.5 420.0,985.5 419.0,985.5 418.0,985.5 417.0,985.5 416.0,985.5 415.0,985.5 414.0,985.5 413.0,985.5 412.0,985.5 411.0,985.5 410.0,985.5 409.0,985.5 408.0,985.5 407.0,985.5 406.0,985.5 405.0,985.5 404.0,985.5 403.0,985.5 402.0,985.5 401.0,985.5 400.0,985.5 399.0,985.5 398.0,985.5 397.0,985.5 396.0,985.5 395.0,985.5 394.0,985.5 393.0,985.5 392.0,985.5 391.0,985.5 390.0,985.5 389.0,985.5 388.0,985.5 387.0,985.5 386.5,985.0 386.0,984.5 385.0,984.5 384.5,984.0 384.0,983.5 383.0,983.5 382.5,983.0 382.0,982.5 381.5,982.0 381.0,981.5 380.5,981.0 380.0,980.5 379.5,980.0 379.0,979.5 378.5,979.0 378.0,978.5 377.5,978.0 377.0,977.5 376.5,977.0 376.5,976.0 376.5,975.0 376.0,974.5 375.5,974.0 375.5,973.0 375.5,972.0 375.0,971.5 374.5,971.0 374.5,970.0 374.5,969.0 374.5,968.0 374.5,967.0 374.5,966.0 374.5,965.0 374.5,964.0 374.5,963.0 374.5,962.0 374.5,961.0 374.5,960.0 374.5,959.0 374.5,958.0 374.5,957.0 374.5,956.0 374.5,955.0 374.5,954.0 374.5,953.0 374.5,952.0 374.5,951.0 374.5,950.0 374.5,949.0 374.5,948.0 374.5,947.0 374.5,946.0 374.5,945.0 374.5,944.0 374.5,943.0 374.5,942.0 374.5,941.0 374.5,940.0 374.5,939.0 374.5,938.0 374.5,937.0 374.5,936.0 374.5,935.0 374.5,934.0 374.5,933.0 374.5,932.0 374.5,931.0 374.5,930.0 374.5,929.0 374.5,928.0 374.5,927.0 374.5,926.0 374.5,925.0 374.5,924.0 374.5,923.0 374.5,922.0 374.5,921.0 374.5,920.0 374.5,919.0 374.5,918.0 374.5,917.0 374.5,916.0 374.5,915.0 374.5,914.0 374.5,913.0 374.5,912.0 374.5,911.0 374.5,910.0 374.5,909.0 374.5,908.0 374.5,907.0 374.5,906.0 374.5,905.0 374.5,904.0 374.5,903.0 374.5,902.0 374.5,901.0 374.5,900.0 374.5,899.0 374.5,898.0 374.5,897.0 374.5,896.0 374.5,895.0 374.5,894.0 374.5,893.0 374.5,892.0 374.5,891.0 374.5,890.0 374.5,889.0 374.5,888.0 374.5,887.0 374.5,886.0 374.5,885.0 374.5,884.0 374.5,883.0 374.5,882.0 374.5,881.0 374.5,880.0 374.5,879.0 374.5,878.0 374.5,877.0 374.5,876.0 374.5,875.0 374.5,874.0 374.5,873.0 374.5,872.0 374.5,871.0 374.5,870.0 374.5,869.0 374.5,868.0 374.5,867.0 374.5,866.0 374.5,865.0 374.5,864.0 374.5,863.0 374.5,862.0 374.5,861.0 374.5,860.0 374.5,859.0 374.5,858.0 374.5,857.0 374.5,856.0 374.5,855.0 374.5,854.0 374.5,853.0 374.5,852.0 374.5,851.0 374.5,850.0 374.5,849.0 374.5,848.0 374.5,847.0 374.5,846.0 374.5,845.0 374.5,844.0 374.5,843.0 374.5,842.0 374.5,841.0 374.5,840.0 374.5,839.0 374.5,838.0 374.5,837.0 374.5,836.0 374.5,835.0 374.5,834.0 374.5,833.0 374.5,832.0 374.5,831.0 374.5,830.0 374.5,829.0 374.5,828.0 374.5,827.0 374.5,826.0 374.5,825.0 374.5,824.0 374.5,823.0 374.5,822.0 374.5,821.0 374.5,820.0 374.5,819.0 374.5,818.0 374.5,817.0 374.5,816.0 374.5,815.0 374.5,814.0 374.5,813.0 374.5,812.0 374.5,811.0 374.5,810.0 374.5,809.0 374.5,808.0 374.5,807.0 374.5,806.0 374.5,805.0 374.5,804.0 374.5,803.0 374.5,802.0 374.5,801.0 374.5,800.0 374.5,799.0 374.5,798.0 374.5,797.0 374.5,796.0 374.5,795.0 374.5,794.0 374.5,793.0 374.5,792.0 374.5,791.0 374.5,790.0 374.5,789.0 374.5,788.0 374.5,787.0 374.5,786.0 374.5,785.0 374.5,784.0 374.5,783.0 374.5,782.0 374.5,781.0 374.5,780.0 374.5,779.0 374.5,778.0 374.5,777.0 374.5,776.0 374.5,775.0 374.5,774.0 374.5,773.0 374.5,772.0 374.5,771.0 374.5,770.0 374.5,769.0 374.5,768.0 374.5,767.0 374.5,766.0 374.5,765.0 374.5,764.0 374.5,763.0 374.5,762.0 374.5,761.0 374.5,760.0 374.5,759.0 374.5,758.0 374.5,757.0 374.5,756.0 374.5,755.0 374.5,754.0 374.5,753.0 374.5,752.0 374.5,751.0 374.5,750.0 374.5,749.0 374.5,748.0 374.5,747.0 374.5,746.0 374.5,745.0 374.5,744.0 374.5,743.0 374.5,742.0 374.5,741.0 374.5,740.0 375.0,739.5 375.5,739.0 375.5,738.0 375.5,737.0 375.5,736.0 375.5,735.0 376.0,734.5 376.5,734.0 376.5,733.0 376.5,732.0 377.0,731.5 377.5,731.0 377.5,730.0 378.0,729.5 378.5,729.0 378.5,728.0 379.0,727.5 379.5,727.0 379.5,726.0 380.0,725.5 380.5,725.0 380.5,724.0 381.0,723.5 381.5,723.0 382.0,722.5 382.5,722.0 382.5,721.0 383.0,720.5 383.5,720.0 384.0,719.5 384.5,719.0 385.0,718.5 385.5,718.0 386.0,717.5 386.5,717.0 387.0,716.5 388.0,716.5 388.5,716.0 389.0,715.5 389.5,715.0 390.0,714.5 391.0,714.5 391.5,714.0 392.0,713.5 393.0,713.5 393.5,713.0 394.0,712.5 395.0,712.5 396.0,712.5 396.5,712.0 397.0,711.5 398.0,711.5 399.0,711.5 400.0,711.5 401.0,711.5 402.0,711.5 403.0,711.5 404.0,711.5 405.0,711.5 406.0,711.5 407.0,711.5 408.0,711.5 409.0,711.5 410.0,711.5 411.0,711.5 412.0,711.5 413.0,711.5 414.0,711.5 415.0,711.5 416.0,711.5 417.0,711.5 418.0,711.5 419.0,711.5 420.0,711.5 421.0,711.5 422.0,711.5 423.0,711.5 424.0,711.5 425.0,711.5 426.0,711.5 427.0,711.5 428.0,711.5 429.0,711.5 430.0,711.5 431.0,711.5 432.0,711.5 433.0,711.5 434.0,711.5 435.0,711.5 436.0,711.5 437.0,711.5 438.0,711.5 439.0,711.5 440.0,711.5 441.0,711.5 442.0,711.5 443.0,711.5 444.0,711.5 445.0,711.5 446.0,711.5 447.0,711.5 448.0,711.5 449.0,711.5 450.0,711.5 451.0,711.5 452.0,711.5 453.0,711.5 454.0,711.5 455.0,711.5 456.0,711.5 457.0,711.5 458.0,711.5 459.0,711.5 460.0,711.5 461.0,711.5 461.5,712.0 462.0,712.5 463.0,712.5 464.0,712.5 465.0,712.5 465.5,713.0 466.0,713.5 467.0,713.5 467.5,714.0 468.0,714.5 469.0,714.5 469.5,715.0 470.0,715.5 471.0,715.5 471.5,716.0 472.0,716.5 472.5,717.0 473.0,717.5 474.0,717.5 474.5,718.0 475.0,718.5 475.5,719.0 476.0,719.5 476.5,720.0 477.0,720.5 477.5,721.0 478.0,721.5 478.5,722.0 479.0,722.5 479.5,723.0 479.5,724.0 480.0,724.5 480.5,725.0 480.5,726.0 481.0,726.5 481.5,726.0 481.5,725.0 481.5,724.0 481.0,723.5 480.5,723.0 480.5,722.0 480.5,721.0 480.5,720.0 480.5,719.0 480.0,718.5 479.5,718.0 479.5,717.0 479.5,716.0 479.0,715.5 478.5,715.0 478.5,714.0 478.0,713.5 477.5,713.0 477.5,712.0 477.0,711.5 476.5,711.0 476.5,710.0 476.0,709.5 475.5,709.0 475.0,708.5 474.5,708.0 474.0,707.5 473.5,707.0 473.0,706.5 472.5,706.0 472.0,705.5 471.5,705.0 471.0,704.5 470.0,704.5 469.5,704.0 469.0,703.5 468.5,703.0 468.0,702.5 467.0,702.5 466.5,702.0 466.0,701.5 465.0,701.5 464.5,701.0 464.0,700.5 463.0,700.5 462.5,700.0 462.0,699.5 461.0,699.5 460.0,699.5 459.0,699.5 458.5,699.0 458.0,698.5 457.0,698.5 456.0,698.5 455.0,698.5 454.0,698.5 453.0,698.5 452.0,698.5 451.0,698.5 450.0,698.5 449.0,698.5 448.0,698.5 447.0,698.5 446.0,698.5 445.0,698.5 444.0,698.5 443.0,698.5 442.0,698.5 441.0,698.5 440.0,698.5 439.0,698.5 438.0,698.5 437.0,698.5 436.0,698.5 435.0,698.5 434.0,698.5 433.0,698.5 432.0,698.5 431.0,698.5 430.0,698.5 429.0,698.5 428.0,698.5 427.0,698.5 426.0,698.5 425.0,698.5 424.0,698.5 423.0,698.5 422.0,698.5 421.0,698.5 420.0,698.5 419.0,698.5 418.0,698.5 417.0,698.5 416.0,698.5 415.0,698.5 414.0,698.5 413.0,698.5 412.0,698.5 411.0,698.5 410.0,698.5 409.0,698.5 408.0,698.5 407.0,698.5 406.0,698.5 405.0,698.5 404.0,698.5 403.0,698.5 402.0,698.5 401.0,698.5 400.0,698.5 399.0,698.5 398.0,698.5 397.0,698.5 396.0,698.5 395.0,698.5 394.0,698.5 393.5,698.0 393.0,697.5 392.5,697.0 392.5,696.0 392.5,695.0 392.5,694.0 392.5,693.0 392.5,692.0 392.5,691.0 392.5,690.0 392.5,689.0 392.5,688.0 392.5,687.0 392.5,686.0 392.5,685.0 392.5,684.0 392.5,683.0 392.5,682.0 392.0,681.5 391.5,681.0 391.5,680.0 391.5,679.0 391.5,678.0 391.5,677.0 391.5,676.0 391.5,675.0 391.5,674.0 391.5,673.0 391.5,672.0 391.5,671.0 391.5,670.0 391.5,669.0 391.5,668.0 391.5,667.0 391.5,666.0 391.5,665.0 391.0,664.5 390.5,664.0 390.5,663.0 390.5,662.0 390.5,661.0 390.5,660.0 390.5,659.0 390.5,658.0 390.5,657.0 390.5,656.0 390.5,655.0 390.5,654.0 390.5,653.0 390.0,652.5 389.5,652.0 389.0,651.5 388.5,651.0 388.0,650.5 387.5,650.0 387.0,649.5 386.5,649.0 386.0,648.5 385.5,648.0 385.0,647.5 384.5,647.0 384.0,646.5 383.5,646.0 383.0,645.5 382.5,645.0 382.0,644.5 381.5,644.0 381.0,643.5 380.5,643.0 380.0,642.5 379.5,642.0 379.0,641.5 378.5,641.0 378.5,640.0 378.0,639.5 377.5,639.0 377.0,638.5 376.5,638.0 376.5,637.0 376.0,636.5 375.5,636.0 375.0,635.5 374.5,635.0 374.5,634.0 374.0,633.5 373.5,633.0 373.5,632.0 373.0,631.5 372.5,631.0 372.5,630.0 372.5,629.0 372.0,628.5 371.5,628.0 371.5,627.0 371.5,626.0 371.0,625.5 370.5,625.0 370.5,624.0 370.5,623.0 370.5,622.0 370.0,621.5 369.5,621.0 369.5,620.0 369.5,619.0 369.5,618.0 369.5,617.0 369.5,616.0 369.5,615.0 369.0,614.5 368.5,614.0 368.5,613.0 368.5,612.0 368.5,611.0 368.5,610.0 368.5,609.0 368.5,608.0 368.5,607.0 368.5,606.0 368.5,605.0 368.5,604.0 368.5,603.0 368.5,602.0 368.5,601.0 368.5,600.0 368.5,599.0 368.5,598.0 368.5,597.0 368.5,596.0 368.5,595.0 368.5,594.0 368.5,593.0 368.5,592.0 369.0,591.5 369.5,591.0 369.5,590.0 369.5,589.0 369.5,588.0 369.5,587.0 369.5,586.0 369.5,585.0 369.5,584.0 369.5,583.0 369.5,582.0 369.5,581.0 369.5,580.0 370.0,579.5 370.5,579.0 370.5,578.0 370.5,577.0 370.5,576.0 370.5,575.0 370.5,574.0 370.5,573.0 370.5,572.0 370.5,571.0 371.0,570.5 371.5,570.0 371.5,569.0 371.5,568.0 371.5,567.0 371.5,566.0 371.5,565.0 371.5,564.0 372.0,563.5 372.5,563.0 372.5,562.0 372.5,561.0 372.5,560.0 372.5,559.0 372.5,558.0 372.5,557.0 372.5,556.0 373.0,555.5 373.5,555.0 373.5,554.0 373.5,553.0 373.5,552.0 373.5,551.0 373.5,550.0 373.5,549.0 374.0,548.5 374.5,548.0 374.5,547.0 374.5,546.0 374.5,545.0 374.5,544.0 374.5,543.0 374.5,542.0 375.0,541.5 375.5,541.0 375.5,540.0 375.5,539.0 375.5,538.0 375.5,537.0 375.5,536.0 375.5,535.0 376.0,534.5 376.5,534.0 376.5,533.0 376.5,532.0 376.5,531.0 376.5,530.0 376.5,529.0 377.0,528.5 377.5,528.0 377.5,527.0 377.5,526.0 377.5,525.0 377.5,524.0 377.5,523.0 377.5,522.0 378.0,521.5 378.5,521.0 378.5,520.0 378.5,519.0 378.5,518.0 378.5,517.0 378.5,516.0 378.5,515.0 379.0,514.5 379.5,514.0 379.5,513.0 379.5,512.0 379.5,511.0 379.5,510.0 379.5,509.0 379.5,508.0 380.0,507.5 380.5,507.0 380.5,506.0 380.5,505.0 380.5,504.0 381.0,503.5 381.5,503.0 381.0,502.5 380.5,503.0 380.0,503.5 379.5,504.0 379.5,505.0 379.0,505.5 378.5,506.0 378.5,507.0 378.5,508.0 378.0,508.5 377.5,509.0 377.5,510.0 377.0,510.5 376.5,511.0 376.5,512.0 376.0,512.5 375.5,513.0 375.5,514.0 375.0,514.5 374.5,515.0 374.5,516.0 374.5,517.0 374.0,517.5 373.5,518.0 373.5,519.0 373.0,519.5 372.5,520.0 372.5,521.0 372.5,522.0 372.0,522.5 371.5,523.0 371.5,524.0 371.5,525.0 371.0,525.5 370.5,526.0 370.5,527.0 370.5,528.0 370.0,528.5 369.5,529.0 369.5,530.0 369.5,531.0 369.0,531.5 368.5,532.0 368.5,533.0 368.5,534.0 368.0,534.5 367.5,535.0 367.5,536.0 367.5,537.0 367.5,538.0 367.0,538.5 366.5,539.0 366.5,540.0 366.5,541.0 366.5,542.0 366.0,542.5 365.5,543.0 365.5,544.0 365.5,545.0 365.5,546.0 365.0,546.5 364.5,547.0 364.5,548.0 364.5,549.0 364.5,550.0 364.5,551.0 364.0,551.5 363.5,552.0 363.5,553.0 363.5,554.0 363.5,555.0 363.0,555.5 362.5,556.0 362.5,557.0 362.5,558.0 362.5,559.0 362.5,560.0 362.0,560.5 361.5,561.0 361.5,562.0 361.5,563.0 361.5,564.0 361.5,565.0 361.5,566.0 361.0,566.5 360.5,567.0 360.5,568.0 360.5,569.0 360.5,570.0 360.5,571.0 360.5,572.0 360.5,573.0 360.0,573.5 359.5,574.0 359.5,575.0 359.5,576.0 359.5,577.0 359.5,578.0 359.5,579.0 359.5,580.0 359.0,580.5 358.5,581.0 358.5,582.0 358.5,583.0 358.5,584.0 358.5,585.0 358.5,586.0 358.5,587.0 358.5,588.0 358.5,589.0 358.0,589.5 357.5,590.0 357.5,591.0 357.5,592.0 357.5,593.0 357.5,594.0 357.5,595.0 357.5,596.0 357.5,597.0 357.5,598.0 357.5,599.0 357.5,600.0 357.0,600.5 356.5,601.0 356.5,602.0 356.5,603.0 356.5,604.0 356.5,605.0 356.5,606.0 356.5,607.0 356.5,608.0 356.5,609.0 356.5,610.0 356.5,611.0 356.5,612.0 356.5,613.0 356.5,614.0 356.5,615.0 356.5,616.0 356.5,617.0 356.5,618.0 356.5,619.0 356.5,620.0 356.5,621.0 356.5,622.0 356.5,623.0 356.5,624.0 356.5,625.0 356.5,626.0 356.5,627.0 356.0,627.5 355.5,628.0 355.5,629.0 355.5,630.0 355.5,631.0 355.5,632.0 355.5,633.0 355.5,634.0 355.5,635.0 355.5,636.0 355.5,637.0 355.5,638.0 355.5,639.0 355.5,640.0 355.5,641.0 355.5,642.0 355.5,643.0 355.0,643.5 354.5,644.0 354.5,645.0 354.5,646.0 354.5,647.0 354.5,648.0 354.5,649.0 354.5,650.0 354.5,651.0 354.5,652.0 354.5,653.0 354.5,654.0 354.5,655.0 354.5,656.0 354.5,657.0 354.5,658.0 354.5,659.0 354.5,660.0 354.5,661.0 354.5,662.0 354.5,663.0 354.5,664.0 354.5,665.0 354.5,666.0 354.5,667.0 354.5,668.0 354.5,669.0 354.5,670.0 354.5,671.0 354.5,672.0 354.0,672.5 353.5,673.0 353.5,674.0 353.5,675.0 353.5,676.0 354.0,676.5 354.5,677.0 355.0,677.5 355.5,678.0 355.5,679.0 356.0,679.5 356.5,680.0 357.0,680.5 357.5,681.0 357.5,682.0 358.0,682.5 358.5,683.0 359.0,683.5 359.5,684.0 359.5,685.0 360.0,685.5 360.5,686.0 360.5,687.0 361.0,687.5 361.5,688.0 361.5,689.0 362.0,689.5 362.5,690.0 362.5,691.0 363.0,691.5 363.5,692.0 363.5,693.0 364.0,693.5 364.5,694.0 364.5,695.0 365.0,695.5 365.5,696.0 365.5,697.0 365.5,698.0 366.0,698.5 366.5,699.0 366.5,700.0 367.0,700.5 367.5,701.0 367.5,702.0 367.5,703.0 368.0,703.5 368.5,704.0 368.5,705.0 368.5,706.0 368.5,707.0 369.0,707.5 369.5,708.0 369.5,709.0 369.5,710.0 369.5,711.0 370.0,711.5 370.5,712.0 370.5,713.0 370.5,714.0 370.5,715.0 370.5,716.0 370.5,717.0 370.5,718.0 370.5,719.0 370.5,720.0 370.5,721.0 370.5,722.0 370.5,723.0 370.5,724.0 370.5,725.0 370.5,726.0 370.5,727.0 370.5,728.0 370.5,729.0 370.5,730.0 370.5,731.0 370.0,731.5 369.5,732.0 369.5,733.0 369.5,734.0 369.0,734.5 368.5,735.0 368.5,736.0 368.5,737.0 368.0,737.5 367.5,738.0 367.5,739.0 367.0,739.5 366.5,740.0 366.5,741.0 366.0,741.5 365.5,742.0 365.0,742.5 364.5,743.0 364.5,744.0 364.0,744.5 363.5,745.0 363.0,745.5 362.5,746.0 362.0,746.5 361.5,747.0 361.0,747.5 360.5,748.0 360.0,748.5 359.5,749.0 359.0,749.5 358.5,750.0 358.0,750.5 357.5,751.0 357.0,751.5 356.5,752.0 356.0,752.5 355.0,752.5 354.5,753.0 354.0,753.5 353.5,754.0 353.0,754.5 352.0,754.5 351.5,755.0 351.0,755.5 350.0,755.5 349.5,756.0 349.0,756.5 348.0,756.5 347.0,756.5 346.5,757.0 346.0,757.5 345.0,757.5 344.0,757.5 343.0,757.5 342.5,758.0 342.0,758.5 341.0,758.5 340.0,758.5 339.0,758.5 338.0,758.5 337.5,759.0 337.0,759.5 336.5,760.0 336.5,761.0 336.0,761.5 335.5,762.0 335.5,763.0 335.0,763.5 334.5,764.0 334.0,764.5 333.5,765.0 333.0,765.5 332.5,766.0 332.0,766.5 331.5,767.0 331.0,767.5 330.5,768.0 330.0,768.5 329.0,768.5 328.5,769.0 328.0,769.5 327.5,770.0 327.0,770.5 326.0,770.5 325.5,771.0 325.0,771.5 324.0,771.5 323.0,771.5 322.5,772.0 322.0,772.5 321.0,772.5 320.0,772.5 319.0,772.5 318.5,773.0 318.0,773.5 317.0,773.5 316.0,773.5 315.0,773.5 314.0,773.5 313.0,773.5 312.0,773.5 311.0,773.5 310.0,773.5 309.0,773.5 308.0,773.5 307.0,773.5 306.0,773.5 305.0,773.5 304.0,773.5 303.5,773.0 303.0,772.5 302.0,772.5 301.0,772.5 300.0,772.5 299.0,772.5 298.5,772.0 298.0,771.5 297.0,771.5 296.0,771.5 295.5,771.0 295.0,770.5 294.0,770.5 293.5,770.0 293.0,769.5 292.0,769.5 291.0,769.5 290.5,769.0 290.0,768.5 289.0,768.5 288.5,768.0 288.0,767.5 287.0,767.5 286.5,767.0 286.0,766.5 285.0,766.5 284.5,766.0 284.0,765.5 283.5,765.0 283.0,764.5 282.0,764.5 281.5,764.0 281.0,763.5 280.5,763.0 280.0,762.5 279.5,762.0 279.0,761.5 278.0,761.5 277.5,761.0 277.0,760.5 276.5,760.0 276.0,759.5 275.5,759.0 275.0,758.5 274.5,758.0 274.0,757.5 273.5,757.0 273.0,756.5 272.5,756.0 272.0,755.5 271.5,755.0 271.0,754.5 270.5,754.0 270.0,753.5 269.5,753.0 269.5,752.0 269.0,751.5 268.5,751.0 268.0,750.5 267.5,750.0 267.0,749.5 266.5,749.0 266.5,748.0 266.0,747.5 265.5,747.0 265.0,746.5 264.5,746.0 264.5,745.0 264.0,744.5 263.5,744.0 263.5,743.0 263.0,742.5 262.5,742.0 262.5,741.0 262.0,740.5 261.5,740.0 261.5,739.0 261.0,738.5 260.5,738.0 260.5,737.0 260.0,736.5 259.5,736.0 259.5,735.0 259.5,734.0 259.0,733.5 258.5,733.0 258.5,732.0 258.5,731.0 258.5,730.0 258.0,729.5 257.5,729.0 257.5,728.0 257.5,727.0 257.5,726.0 257.5,725.0 257.0,724.5 256.5,724.0 256.5,723.0 256.5,722.0 256.5,721.0 256.5,720.0 256.5,719.0 256.5,718.0 256.5,717.0 256.5,716.0 256.5,715.0 256.5,714.0 256.5,713.0 256.5,712.0 256.5,711.0 256.5,710.0 256.5,709.0 256.5,708.0 256.5,707.0 256.5,706.0 257.0,705.5 257.5,705.0 257.5,704.0 257.5,703.0 257.5,702.0 257.5,701.0 258.0,700.5 258.5,700.0 258.5,699.0 258.5,698.0 258.5,697.0 259.0,696.5 259.5,696.0 259.5,695.0 259.5,694.0 260.0,693.5 260.5,693.0 260.5,692.0 260.5,691.0 261.0,690.5 261.5,690.0 261.5,689.0 261.5,688.0 262.0,687.5 262.5,687.0 262.5,686.0 263.0,685.5 263.5,685.0 263.5,684.0 264.0,683.5 264.5,683.0 264.5,682.0 265.0,681.5 265.5,681.0 265.5,680.0 266.0,679.5 266.5,679.0 266.5,678.0 267.0,677.5 267.5,677.0 267.5,676.0 267.5,675.0 267.5,674.0 267.5,673.0 267.5,672.0 267.5,671.0 267.5,670.0 267.5,669.0 267.5,668.0 267.5,667.0 267.5,666.0 267.5,665.0 267.0,664.5 266.5,664.0 266.5,663.0 266.5,662.0 266.5,661.0 266.5,660.0 266.5,659.0 266.5,658.0 266.5,657.0 266.5,656.0 266.5,655.0 266.5,654.0 266.5,653.0 266.5,652.0 266.5,651.0 266.5,650.0 266.5,649.0 266.5,648.0 266.5,647.0 266.5,646.0 266.5,645.0 266.5,644.0 266.5,643.0 266.5,642.0 266.5,641.0 266.5,640.0 266.5,639.0 266.5,638.0 266.5,637.0 266.5,636.0 266.5,635.0 266.5,634.0 266.5,633.0 266.5,632.0 266.5,631.0 266.5,630.0 266.5,629.0 266.5,628.0 267.0,627.5 267.5,627.0 267.5,626.0 267.5,625.0 267.5,624.0 267.5,623.0 267.5,622.0 267.5,621.0 267.5,620.0 267.5,619.0 267.5,618.0 267.5,617.0 267.5,616.0 267.5,615.0 267.5,614.0 267.5,613.0 267.5,612.0 267.5,611.0 267.5,610.0 268.0,609.5 268.5,609.0 268.5,608.0 268.5,607.0 268.5,606.0 268.5,605.0 268.5,604.0 268.5,603.0 268.5,602.0 268.5,601.0 268.5,600.0 268.5,599.0 269.0,598.5 269.5,598.0 269.5,597.0 269.5,596.0 269.5,595.0 269.5,594.0 269.5,593.0 269.5,592.0 269.5,591.0 269.5,590.0 269.5,589.0 270.0,588.5 270.5,588.0 270.5,587.0 270.5,586.0 270.5,585.0 270.5,584.0 270.5,583.0 270.5,582.0 270.5,581.0 270.5,580.0 271.0,579.5 271.5,579.0 271.5,578.0 271.5,577.0 271.5,576.0 271.5,575.0 271.5,574.0 271.5,573.0 272.0,572.5 272.5,572.0 272.5,571.0 272.5,570.0 272.5,569.0 272.5,568.0 272.5,567.0 272.5,566.0 273.0,565.5 273.5,565.0 273.5,564.0 273.5,563.0 273.5,562.0 273.5,561.0 273.5,560.0 274.0,559.5 274.5,559.0 274.5,558.0 274.5,557.0 274.5,556.0 274.5,555.0 274.5,554.0 275.0,553.5 275.5,553.0 275.5,552.0 275.5,551.0 275.5,550.0 275.5,549.0 276.0,548.5 276.5,548.0 276.5,547.0 276.5,546.0 276.5,545.0 276.5,544.0 276.5,543.0 277.0,542.5 277.5,542.0 277.5,541.0 277.5,540.0 277.5,539.0 277.5,538.0 278.0,537.5 278.5,537.0 278.5,536.0 278.5,535.0 278.5,534.0 279.0,533.5 279.5,533.0 279.5,532.0 279.5,531.0 279.5,530.0 279.5,529.0 280.0,528.5 280.5,528.0 280.5,527.0 280.5,526.0 280.5,525.0 281.0,524.5 281.5,524.0 281.5,523.0 281.5,522.0 281.5,521.0 282.0,520.5 282.5,520.0 282.5,519.0 282.5,518.0 282.5,517.0 283.0,516.5 283.5,516.0 283.5,515.0 283.5,514.0 283.5,513.0 284.0,512.5 284.5,512.0 284.5,511.0 284.5,510.0 284.5,509.0 285.0,508.5 285.5,508.0 285.5,507.0 285.5,506.0 285.5,505.0 286.0,504.5 286.5,504.0 286.5,503.0 286.5,502.0 287.0,501.5 287.5,501.0 287.5,500.0 287.5,499.0 287.5,498.0 288.0,497.5 288.5,497.0 288.5,496.0 288.5,495.0 289.0,494.5 289.5,494.0 289.5,493.0 289.5,492.0 290.0,491.5 290.5,491.0 290.5,490.0 290.5,489.0 291.0,488.5 291.5,488.0 291.5,487.0 291.5,486.0 292.0,485.5 292.5,485.0 292.5,484.0 292.5,483.0 293.0,482.5 293.5,482.0 293.5,481.0 293.5,480.0 294.0,479.5 294.5,479.0 294.5,478.0 294.5,477.0 295.0,476.5 295.5,476.0 295.5,475.0 296.0,474.5 296.5,474.0 296.5,473.0 296.5,472.0 297.0,471.5 297.5,471.0 297.5,470.0 298.0,469.5 298.5,469.0 298.5,468.0 298.5,467.0 299.0,466.5 299.5,466.0 299.5,465.0 300.0,464.5 300.5,464.0 300.5,463.0 300.5,462.0 301.0,461.5 301.5,461.0 301.5,460.0 302.0,459.5 302.5,459.0 302.5,458.0 303.0,457.5 303.5,457.0 303.5,456.0 304.0,455.5 304.5,455.0 304.5,454.0 305.0,453.5 305.5,453.0 305.5,452.0 306.0,451.5 306.5,451.0 306.5,450.0 307.0,449.5 307.5,449.0 307.5,448.0 308.0,447.5 308.5,447.0 308.5,446.0 309.0,445.5 309.5,445.0 309.5,444.0 310.0,443.5 310.5,443.0 310.5,442.0 311.0,441.5 311.5,441.0 312.0,440.5 312.5,440.0 312.5,439.0 313.0,438.5 313.5,438.0 313.5,437.0 314.0,436.5 314.5,436.0 315.0,435.5 315.5,435.0 315.5,434.0 316.0,433.5 316.5,433.0 317.0,432.5 317.5,432.0 317.5,431.0 318.0,430.5 318.5,430.0 319.0,429.5 319.5,429.0 320.0,428.5 320.5,428.0 320.5,427.0 321.0,426.5 321.5,426.0 322.0,425.5 322.5,425.0 323.0,424.5 323.5,424.0 324.0,423.5 324.5,423.0 325.0,422.5 325.5,422.0 326.0,421.5 326.5,421.0 327.0,420.5 327.5,420.0 328.0,419.5 328.5,419.0 329.0,418.5 329.5,418.0 330.0,417.5 330.5,417.0 331.0,416.5 331.5,416.0 332.0,415.5 332.5,415.0 333.0,414.5 334.0,414.5 334.5,414.0 335.0,413.5 335.5,413.0 336.0,412.5 337.0,412.5 337.5,412.0 338.0,411.5 338.5,411.0 339.0,410.5 340.0,410.5 340.5,410.0 341.0,409.5 342.0,409.5 342.5,409.0 343.0,408.5 344.0,408.5 344.5,408.0 345.0,407.5 346.0,407.5 346.5,407.0 347.0,406.5 348.0,406.5 348.5,406.0 349.0,405.5 350.0,405.5 351.0,405.5 351.5,405.0 352.0,404.5 353.0,404.5 354.0,404.5 355.0,404.5 355.5,404.0 356.0,403.5 357.0,403.5 358.0,403.5 359.0,403.5 360.0,403.5 361.0,403.5 361.5,403.0 362.0,402.5 363.0,402.5 364.0,402.5 365.0,402.5 366.0,402.5 367.0,402.5 368.0,402.5 369.0,402.5 370.0,402.5 371.0,402.5 372.0,402.5 372.5,403.0 373.0,403.5 374.0,403.5 375.0,403.5 376.0,403.5 377.0,403.5 377.5,404.0 378.0,404.5 379.0,404.5 380.0,404.5 380.5,405.0 381.0,405.5 382.0,405.5 383.0,405.5 383.5,406.0 384.0,406.5 385.0,406.5 386.0,406.5 386.5,407.0 387.0,407.5 388.0,407.5 389.0,407.5 390.0,407.5 390.5,407.0 391.0,406.5 391.5,406.0 392.0,405.5 393.0,405.5 393.5,405.0 394.0,404.5 394.5,404.0 395.0,403.5 396.0,403.5 396.5,403.0 397.0,402.5 398.0,402.5 398.5,402.0 399.0,401.5 400.0,401.5 400.5,401.0 401.0,400.5 402.0,400.5 403.0,400.5 403.5,400.0 404.0,399.5 405.0,399.5 406.0,399.5 406.5,399.0 407.0,398.5 408.0,398.5 409.0,398.5 410.0,398.5 410.5,398.0 411.0,397.5 412.0,397.5 413.0,397.5 414.0,397.5 415.0,397.5 416.0,397.5 417.0,397.5 417.5,397.0 418.0,396.5 419.0,396.5 420.0,396.5 421.0,396.5 422.0,396.5 423.0,396.5 424.0,396.5 425.0,396.5 425.5,396.0 425.0,395.5 424.0,395.5 423.0,395.5 422.5,395.0 422.0,394.5 421.0,394.5 420.0,394.5 419.0,394.5 418.5,394.0 418.0,393.5 417.0,393.5 416.0,393.5 415.5,393.0 415.0,392.5 414.0,392.5 413.0,392.5 412.5,392.0 412.0,391.5 411.0,391.5 410.5,391.0 410.0,390.5 409.0,390.5 408.0,390.5 407.5,390.0 407.0,389.5 406.0,389.5 405.5,389.0 405.0,388.5 404.0,388.5 403.5,388.0 403.0,387.5 402.0,387.5 401.5,387.0 401.0,386.5 400.0,386.5 399.5,386.0 399.0,385.5 398.0,385.5 397.5,385.0 397.0,384.5 396.0,384.5 395.5,384.0 395.0,383.5 394.0,383.5 393.5,383.0 393.0,382.5 392.0,382.5 391.5,382.0 391.0,381.5 390.5,381.0 390.0,380.5 389.0,380.5 388.5,380.0 388.0,379.5 387.5,379.0 387.0,378.5 386.0,378.5 385.5,378.0 385.0,377.5 384.5,377.0 384.0,376.5 383.5,376.0 383.0,375.5 382.0,375.5 381.5,375.0 381.0,374.5 380.5,374.0 380.0,373.5 379.5,373.0 379.0,372.5 378.5,372.0 378.0,371.5 377.5,371.0 377.0,370.5 376.5,370.0 376.0,369.5 375.5,369.0 375.0,368.5 374.5,368.0 374.0,367.5 373.5,367.0 373.0,366.5 372.5,366.0 372.0,365.5 371.5,365.0 371.0,364.5 370.5,364.0 370.0,363.5 369.5,363.0 369.0,362.5 368.5,362.0 368.5,361.0 368.0,360.5 367.5,360.0 367.0,359.5 366.5,359.0 366.5,358.0 366.0,357.5 365.5,357.0 365.0,356.5 364.5,356.0 364.5,355.0 364.0,354.5 363.5,354.0 363.5,353.0 363.0,352.5 362.5,352.0 362.5,351.0 362.0,350.5 361.5,350.0 361.5,349.0 361.0,348.5 360.5,348.0 360.5,347.0 360.0,346.5 359.5,346.0 359.5,345.0 359.5,344.0 359.0,343.5 358.5,343.0 358.5,342.0 358.5,341.0 358.0,340.5 357.5,340.0 357.5,339.0 357.5,338.0 357.0,337.5 356.5,337.0 356.5,336.0 356.5,335.0 356.5,334.0 356.0,333.5 355.5,333.0 355.5,332.0 355.5,331.0 355.5,330.0 355.5,329.0 355.0,328.5 354.5,328.0 354.5,327.0 354.5,326.0 354.5,325.0 354.5,324.0 354.5,323.0 354.5,322.0 354.0,321.5 353.5,321.0 353.5,320.0 353.5,319.0 353.5,318.0 353.5,317.0 353.5,316.0 353.5,315.0 353.5,314.0 353.5,313.0 353.5,312.0 353.5,311.0 353.5,310.0 353.5,309.0 353.5,308.0 353.5,307.0 353.5,306.0 353.5,305.0 353.5,304.0 353.5,303.0 353.5,302.0 353.5,301.0 353.5,300.0 354.0,299.5 354.5,299.0 354.5,298.0 354.5,297.0 354.5,296.0 354.5,295.0 354.5,294.0 354.5,293.0 354.5,292.0 354.5,291.0 355.0,290.5 355.5,290.0 355.5,289.0 355.5,288.0 355.5,287.0 355.5,286.0 355.5,285.0 356.0,284.5 356.5,284.0 356.5,283.0 356.5,282.0 356.5,281.0 356.5,280.0 357.0,279.5 357.5,279.0 357.5,278.0 357.5,277.0 357.5,276.0 357.5,275.0 358.0,274.5 358.5,274.0 358.5,273.0 358.5,272.0 358.5,271.0 358.5,270.0 359.0,269.5 359.5,269.0 359.5,268.0 359.5,267.0 359.5,266.0 360.0,265.5 360.5,265.0 360.5,264.0 360.5,263.0 360.5,262.0 361.0,261.5 361.5,261.0 361.5,260.0 361.5,259.0 361.5,258.0 361.5,257.0 361.5,256.0 361.5,255.0 361.5,254.0 362.0,253.5 362.5,253.0 362.5,252.0 362.5,251.0 362.5,250.0 362.5,249.0 362.5,248.0 362.5,247.0 362.5,246.0 362.5,245.0 362.5,244.0 362.5,243.0 362.5,242.0 362.5,241.0 362.5,240.0 362.5,239.0 362.5,238.0 362.5,237.0 362.5,236.0 362.5,235.0 362.5,234.0 362.5,233.0 362.5,232.0 362.5,231.0 362.5,230.0 362.5,229.0 362.5,228.0 362.5,227.0 362.5,226.0 362.5,225.0 362.5,224.0 362.5,223.0 362.5,222.0 362.5,221.0 362.5,220.0 362.5,219.0 362.5,218.0 362.5,217.0 363.0,216.5 363.5,216.0 363.5,215.0 363.5,214.0 363.5,213.0 363.5,212.0 363.5,211.0 363.5,210.0 363.5,209.0 363.5,208.0 363.5,207.0 364.0,206.5 364.5,206.0 364.5,205.0 364.0,204.5 363.0,204.5 362.0,204.5 361.0,204.5 360.0,204.5 359.0,204.5 358.0,204.5 357.0,204.5 356.0,204.5 355.5,204.0 355.0,203.5 354.0,203.5 353.0,203.5 352.0,203.5 351.0,203.5 350.0,203.5 349.0,203.5 348.0,203.5 347.5,203.0 347.0,202.5 346.0,202.5 345.0,202.5 344.0,202.5 343.0,202.5 342.0,202.5 341.5,202.0 341.0,201.5 340.0,201.5 339.0,201.5 338.0,201.5 337.5,201.0 337.0,200.5 336.0,200.5 335.0,200.5 334.5,200.0 334.0,199.5 333.0,199.5 332.0,199.5 331.5,199.0 331.0,198.5 330.0,198.5 329.0,198.5 328.5,198.0 328.0,197.5 327.0,197.5 326.5,197.0 326.0,196.5 325.0,196.5 324.5,196.0 324.0,195.5 323.0,195.5 322.0,195.5 321.5,195.0 321.0,194.5 320.0,194.5 319.5,194.0 319.0,193.5 318.5,193.0 318.0,192.5 317.0,192.5 316.5,192.0 316.0,191.5 315.0,191.5 314.5,191.0 314.0,190.5 313.5,190.0 313.0,189.5 312.0,189.5 311.5,189.0 311.0,188.5 310.5,188.0 310.0,187.5 309.0,187.5 308.5,187.0 308.0,186.5 307.5,186.0 307.0,185.5 306.5,185.0 306.0,184.5 305.0,184.5 304.5,184.0 304.0,183.5 303.5,183.0 303.0,182.5 302.5,182.0 302.0,181.5 301.5,181.0 301.0,180.5 300.5,180.0 300.0,179.5 299.5,179.0 299.0,178.5 298.5,178.0 298.0,177.5 297.5,177.0 297.0,176.5 296.5,176.0 296.0,175.5 295.5,175.0 295.0,174.5 294.5,174.0 294.0,173.5 293.5,173.0 293.0,172.5 292.5,172.0 292.5,171.0 292.0,170.5 291.5,170.0 291.0,169.5 290.5,169.0 290.0,168.5 289.5,168.0 289.5,167.0 289.0,166.5 288.5,166.0 288.0,165.5 287.5,165.0 287.5,164.0 287.0,163.5 286.5,163.0 286.0,162.5 285.5,162.0 285.5,161.0 285.0,160.5 284.5,160.0 284.5,159.0 284.0,158.5 283.5,158.0 283.5,157.0 283.0,156.5 282.5,156.0 282.5,155.0 282.0,154.5 281.5,154.0 281.5,153.0 281.0,152.5 280.5,152.0 280.5,151.0 280.5,150.0 280.0,149.5 279.5,149.0 279.5,148.0 279.0,147.5 278.5,147.0 278.5,146.0 278.5,145.0 278.0,144.5 277.5,144.0 277.5,143.0 277.5,142.0 277.5,141.0 277.0,140.5 276.5,140.0 276.5,139.0 276.5,138.0 276.5,137.0 276.0,136.5 275.5,136.0 275.5,135.0 275.5,134.0 275.5,133.0 275.5,132.0 275.5,131.0 275.0,130.5 274.5,130.0 274.5,129.0 274.5,128.0 274.5,127.0 274.5,126.0 274.5,125.0 274.5,124.0 274.5,123.0 274.5,122.0 274.5,121.0 274.5,120.0 274.5,119.0 274.5,118.0 274.5,117.0 274.5,116.0 274.5,115.0 274.5,114.0 274.5,113.0 274.5,112.0 274.5,111.0 274.5,110.0 274.5,109.0 275.0,108.5 275.5,108.0 275.5,107.0 275.5,106.0 275.5,105.0 275.5,104.0 276.0,103.5 276.5,103.0 276.5,102.0 276.5,101.0 276.5,100.0 276.5,99.0 277.0,98.5 277.5,98.0 277.5,97.0 277.5,96.0 278.0,95.5 278.5,95.0 278.5,94.0 278.5,93.0 279.0,92.5 279.5,92.0 279.5,91.0 279.5,90.0 280.0,89.5 280.5,89.0 280.5,88.0 281.0,87.5 281.5,87.0 281.5,86.0 282.0,85.5 282.5,85.0 282.5,84.0 283.0,83.5 283.5,83.0 283.5,82.0 284.0,81.5 284.5,81.0 284.5,80.0 285.0,79.5 285.5,79.0 285.5,78.0 286.0,77.5 286.5,77.0 287.0,76.5 287.5,76.0 287.5,75.0 288.0,74.5 288.5,74.0 288.5,73.0 289.0,72.5 289.5,72.0 290.0,71.5 290.5,71.0 291.0,70.5 291.5,70.0 291.5,69.0 292.0,68.5 292.5,68.0 293.0,67.5 293.5,67.0 294.0,66.5 294.5,66.0 295.0,65.5 295.5,65.0 296.0,64.5 296.5,64.0 297.0,63.5 297.5,63.0 298.0,62.5 298.5,62.0 299.0,61.5 299.5,61.0 300.0,60.5 300.5,60.0 301.0,59.5 301.5,59.0 302.0,58.5 302.5,58.0 303.0,57.5 303.5,57.0 304.0,56.5 305.0,56.5 305.5,56.0 306.0,55.5 306.5,55.0 307.0,54.5 307.5,54.0 308.0,53.5 309.0,53.5 309.5,53.0 310.0,52.5 310.5,52.0 311.0,51.5 312.0,51.5 312.5,51.0 313.0,50.5 313.5,50.0 314.0,49.5 315.0,49.5 315.5,49.0 316.0,48.5 317.0,48.5 317.5,48.0 318.0,47.5 319.0,47.5 319.5,47.0 320.0,46.5 321.0,46.5 321.5,46.0 322.0,45.5 323.0,45.5 323.5,45.0 324.0,44.5 325.0,44.5 325.5,44.0 326.0,43.5 327.0,43.5 328.0,43.5 328.5,43.0 329.0,42.5 330.0,42.5 331.0,42.5 331.5,42.0 332.0,41.5 333.0,41.5 334.0,41.5 334.5,41.0 335.0,40.5 336.0,40.5 337.0,40.5 338.0,40.5 338.5,40.0 339.0,39.5 340.0,39.5 341.0,39.5 342.0,39.5 343.0,39.5 343.5,39.0 344.0,38.5 345.0,38.5 346.0,38.5 347.0,38.5 348.0,38.5 349.0,38.5 350.0,38.5 351.0,38.5 352.0,38.5 353.0,38.5 354.0,38.5 355.0,38.5 356.0,38.5 357.0,38.5 358.0,38.5 359.0,38.5 360.0,38.5 361.0,38.5 362.0,38.5 363.0,38.5 364.0,38.5 365.0,38.5 366.0,38.5 367.0,38.5 368.0,38.5 368.5,39.0 369.0,39.5 370.0,39.5 371.0,39.5 372.0,39.5 373.0,39.5 374.0,39.5 374.5,40.0 375.0,40.5 376.0,40.5 377.0,40.5 378.0,40.5 378.5,41.0 379.0,41.5 380.0,41.5 381.0,41.5 381.5,42.0 382.0,42.5 383.0,42.5 384.0,42.5 384.5,43.0 385.0,43.5 386.0,43.5 386.5,44.0 387.0,44.5 388.0,44.5 389.0,44.5 389.5,45.0 390.0,45.5 391.0,45.5 391.5,46.0 392.0,46.5 393.0,46.5 393.5,47.0 394.0,47.5 395.0,47.5 395.5,48.0 396.0,48.5 396.5,49.0 397.0,49.5 398.0,49.5 398.5,50.0 399.0,50.5 400.0,50.5 400.5,51.0 401.0,51.5 401.5,52.0 402.0,52.5 403.0,52.5 403.5,53.0 404.0,53.5 404.5,54.0 405.0,54.5 405.5,55.0 406.0,55.5 407.0,55.5 407.5,56.0 408.0,56.5 408.5,57.0 409.0,57.5 409.5,58.0 410.0,58.5 410.5,59.0 411.0,59.5 411.5,60.0 412.0,60.5 412.5,61.0 413.0,61.5 413.5,62.0 414.0,62.5 414.5,63.0 415.0,63.5 415.5,64.0 416.0,64.5 416.5,65.0 417.0,65.5 417.5,66.0 418.0,66.5 418.5,67.0 419.0,67.5 419.5,68.0 420.0,68.5 420.5,69.0 421.0,69.5 421.5,70.0 422.0,70.5 422.5,71.0 422.5,72.0 423.0,72.5 423.5,73.0 424.0,73.5 424.5,74.0 425.0,74.5 425.5,75.0 425.5,76.0 426.0,76.5 426.5,77.0 427.0,77.5 427.5,78.0 427.5,79.0 428.0,79.5 428.5,80.0 429.0,80.5 429.5,81.0 429.5,82.0 430.0,82.5 430.5,83.0 431.0,83.5 431.5,84.0 431.5,85.0 432.0,85.5 432.5,86.0 432.5,87.0 433.0,87.5 433.5,88.0 433.5,89.0 434.0,89.5 434.5,90.0 434.5,91.0 435.0,91.5 435.5,92.0 435.5,93.0 436.0,93.5 437.0,93.5 437.5,93.0 438.0,92.5 439.0,92.5 440.0,92.5 440.5,92.0 441.0,91.5 442.0,91.5 443.0,91.5 443.5,91.0 444.0,90.5 445.0,90.5 446.0,90.5 447.0,90.5 447.5,90.0 448.0,89.5 449.0,89.5 450.0,89.5 451.0,89.5 451.5,89.0 452.0,88.5 453.0,88.5 454.0,88.5 454.5,88.0 455.0,87.5 456.0,87.5 457.0,87.5 458.0,87.5 459.0,87.5 459.5,87.0 460.0,86.5 461.0,86.5 462.0,86.5 463.0,86.5 463.5,86.0 464.0,85.5 465.0,85.5 466.0,85.5 467.0,85.5 468.0,85.5 468.5,85.0 469.0,84.5 470.0,84.5 471.0,84.5 472.0,84.5 473.0,84.5 474.0,84.5 474.5,84.0 475.0,83.5 476.0,83.5 477.0,83.5 478.0,83.5 479.0,83.5 480.0,83.5 481.0,83.5 481.5,83.0 482.0,82.5 483.0,82.5 484.0,82.5 485.0,82.5 486.0,82.5 487.0,82.5 488.0,82.5 489.0,82.5 490.0,82.5 490.5,82.0 491.0,81.5 492.0,81.5 493.0,81.5 494.0,81.5 495.0,81.5 496.0,81.5 497.0,81.5 498.0,81.5 499.0,81.5 500.0,81.5 501.0,81.5 502.0,81.5 503.0,81.5 504.0,81.5 505.0,81.5 506.0,81.5 506.5,81.0 507.0,80.5 508.0,80.5 509.0,80.5 510.0,80.5 511.0,80.5 512.0,80.5 513.0,80.5 514.0,80.5 515.0,80.5 516.0,80.5 517.0,80.5 518.0,80.5 518.5,81.0 519.0,81.5 520.0,81.5 521.0,81.5 522.0,81.5 523.0,81.5 524.0,81.5 525.0,81.5 526.0,81.5 527.0,81.5 528.0,81.5 529.0,81.5 530.0,81.5 531.0,81.5 532.0,81.5 533.0,81.5 534.0,81.5 535.0,81.5 535.5,82.0 536.0,82.5 537.0,82.5 538.0,82.5 539.0,82.5 540.0,82.5 541.0,82.5 542.0,82.5 543.0,82.5 544.0,82.5 544.5,83.0 545.0,83.5 546.0,83.5 547.0,83.5 548.0,83.5 549.0,83.5 550.0,83.5 550.5,84.0 551.0,84.5 552.0,84.5 553.0,84.5 554.0,84.5 555.0,84.5 556.0,84.5 556.5,85.0 557.0,85.5 558.0,85.5 559.0,85.5 560.0,85.5 561.0,85.5 561.5,86.0 562.0,86.5 563.0,86.5 564.0,86.5 565.0,86.5 565.5,87.0 566.0,87.5 567.0,87.5 568.0,87.5 569.0,87.5 569.5,88.0 570.0,88.5 571.0,88.5 572.0,88.5 573.0,88.5 574.0,88.5 574.5,89.0 575.0,89.5 576.0,89.5 577.0,89.5 577.5,90.0 578.0,90.5 579.0,90.5 580.0,90.5 580.5,91.0 581.0,91.5 582.0,91.5 583.0,91.5 583.5,92.0 584.0,92.5 585.0,92.5 586.0,92.5 586.5,93.0 587.0,93.5 588.0,93.5 588.5,93.0 588.5,92.0 589.0,91.5 589.5,91.0 589.5,90.0 590.0,89.5 590.5,89.0 590.5,88.0 591.0,87.5 591.5,87.0 591.5,86.0 592.0,85.5 592.5,85.0 593.0,84.5 593.5,84.0 593.5,83.0 594.0,82.5 594.5,82.0 594.5,81.0 595.0,80.5 595.5,80.0 596.0,79.5 596.5,79.0 596.5,78.0 597.0,77.5 597.5,77.0 598.0,76.5 598.5,76.0 598.5,75.0 599.0,74.5 599.5,74.0 600.0,73.5 600.5,73.0 601.0,72.5 601.5,72.0 601.5,71.0 602.0,70.5 602.5,70.0 603.0,69.5 603.5,69.0 604.0,68.5 604.5,68.0 605.0,67.5 605.5,67.0 606.0,66.5 606.5,66.0 607.0,65.5 607.5,65.0 608.0,64.5 608.5,64.0 609.0,63.5 609.5,63.0 610.0,62.5 610.5,62.0 611.0,61.5 611.5,61.0 612.0,60.5 612.5,60.0 613.0,59.5 613.5,59.0 614.0,58.5 614.5,58.0 615.0,57.5 615.5,57.0 616.0,56.5 616.5,56.0 617.0,55.5 618.0,55.5 618.5,55.0 619.0,54.5 619.5,54.0 620.0,53.5 620.5,53.0 621.0,52.5 622.0,52.5 622.5,52.0 623.0,51.5 623.5,51.0 624.0,50.5 625.0,50.5 625.5,50.0 626.0,49.5 626.5,49.0 627.0,48.5 628.0,48.5 628.5,48.0 629.0,47.5 630.0,47.5 630.5,47.0 631.0,46.5 632.0,46.5 632.5,46.0 633.0,45.5 634.0,45.5 634.5,45.0 635.0,44.5 636.0,44.5 636.5,44.0 637.0,43.5 638.0,43.5 639.0,43.5 639.5,43.0 640.0,42.5 641.0,42.5 642.0,42.5 642.5,42.0 643.0,41.5 644.0,41.5 645.0,41.5 645.5,41.0 646.0,40.5 647.0,40.5 648.0,40.5 649.0,40.5 649.5,40.0 650.0,39.5 651.0,39.5 652.0,39.5 653.0,39.5 654.0,39.5 654.5,39.0 655.0,38.5 656.0,38.5 657.0,38.5 658.0,38.5 659.0,38.5 660.0,38.5 661.0,38.5 662.0,38.5 663.0,38.5 664.0,38.5 665.0,38.5 666.0,38.5 667.0,38.5 668.0,38.5 669.0,38.5 670.0,38.5 671.0,38.5 672.0,38.5 673.0,38.5 674.0,38.5 675.0,38.5 676.0,38.5 677.0,38.5 678.0,38.5 679.0,38.5 680.0,38.5 680.5,39.0 681.0,39.5 682.0,39.5 683.0,39.5 684.0,39.5 685.0,39.5 685.5,40.0 686.0,40.5 687.0,40.5 688.0,40.5 689.0,40.5 689.5,41.0 690.0,41.5 691.0,41.5 692.0,41.5 692.5,42.0 693.0,42.5 694.0,42.5 695.0,42.5 695.5,43.0 696.0,43.5 697.0,43.5 697.5,44.0 698.0,44.5 699.0,44.5 700.0,44.5 700.5,45.0 701.0,45.5 702.0,45.5 702.5,46.0 703.0,46.5 704.0,46.5 704.5,47.0 705.0,47.5 706.0,47.5 706.5,48.0 707.0,48.5 708.0,48.5 708.5,49.0 709.0,49.5 709.5,50.0 710.0,50.5 711.0,50.5 711.5,51.0 712.0,51.5 712.5,52.0 713.0,52.5 714.0,52.5 714.5,53.0 715.0,53.5 715.5,54.0 716.0,54.5 716.5,55.0 717.0,55.5 718.0,55.5 718.5,56.0 719.0,56.5 719.5,57.0 720.0,57.5 720.5,58.0 721.0,58.5 721.5,59.0 722.0,59.5 722.5,60.0 723.0,60.5 723.5,61.0 724.0,61.5 724.5,62.0 725.0,62.5 725.5,63.0 726.0,63.5 726.5,64.0 727.0,64.5 727.5,65.0 728.0,65.5 728.5,66.0 729.0,66.5 729.5,67.0 730.0,67.5 730.5,68.0 731.0,68.5 731.5,69.0 731.5,70.0 732.0,70.5 732.5,71.0 733.0,71.5 733.5,72.0 734.0,72.5 734.5,73.0 734.5,74.0 735.0,74.5 735.5,75.0 736.0,75.5 736.5,76.0 736.5,77.0 737.0,77.5 737.5,78.0 737.5,79.0 738.0,79.5 738.5,80.0 739.0,80.5 739.5,81.0 739.5,82.0 740.0,82.5 740.5,83.0 740.5,84.0 740.5,85.0 741.0,85.5 741.5,86.0 741.5,87.0 742.0,87.5 742.5,88.0 742.5,89.0 743.0,89.5 743.5,90.0 743.5,91.0 743.5,92.0 744.0,92.5 744.5,93.0 744.5,94.0 744.5,95.0 745.0,95.5 745.5,96.0 745.5,97.0 745.5,98.0 745.5,99.0 746.0,99.5 746.5,100.0 746.5,101.0 746.5,102.0 746.5,103.0 747.0,103.5 747.5,104.0 747.5,105.0 747.5,106.0 747.5,107.0 747.5,108.0 747.5,109.0 747.5,110.0 748.0,110.5 748.5,111.0 748.5,112.0 748.5,113.0 748.5,114.0 748.5,115.0 748.5,116.0 748.5,117.0 748.5,118.0 748.5,119.0 748.5,120.0 748.5,121.0 748.5,122.0 748.5,123.0 748.5,124.0 748.5,125.0 748.5,126.0 748.5,127.0 748.5,128.0 748.0,128.5 747.5,129.0 747.5,130.0 747.5,131.0 747.5,132.0 747.5,133.0 747.5,134.0 747.5,135.0 747.0,135.5 746.5,136.0 746.5,137.0 746.5,138.0 746.5,139.0 746.0,139.5 745.5,140.0 745.5,141.0 745.5,142.0 745.5,143.0 745.0,143.5 744.5,144.0 744.5,145.0 744.5,146.0 744.0,146.5 743.5,147.0 743.5,148.0 743.5,149.0 743.0,149.5 742.5,150.0 742.5,151.0 742.5,152.0 742.0,152.5 741.5,153.0 741.5,154.0 741.0,154.5 740.5,155.0 740.5,156.0 740.0,156.5 739.5,157.0 739.5,158.0 739.0,158.5 738.5,159.0 738.5,160.0 738.0,160.5 737.5,161.0 737.5,162.0 737.0,162.5 736.5,163.0 736.0,163.5 735.5,164.0 735.5,165.0 735.0,165.5 734.5,166.0 734.0,166.5 733.5,167.0 733.5,168.0 733.0,168.5 732.5,169.0 732.0,169.5 731.5,170.0 731.0,170.5 730.5,171.0 730.5,172.0 730.0,172.5 729.5,173.0 729.0,173.5 728.5,174.0 728.0,174.5 727.5,175.0 727.0,175.5 726.5,176.0 726.0,176.5 725.5,177.0 725.0,177.5 724.5,178.0 724.0,178.5 723.5,179.0 723.0,179.5 722.5,180.0 722.0,180.5 721.5,181.0 721.0,181.5 720.5,182.0 720.0,182.5 719.5,183.0 719.0,183.5 718.5,184.0 718.0,184.5 717.0,184.5 716.5,185.0 716.0,185.5 715.5,186.0 715.0,186.5 714.5,187.0 714.0,187.5 713.0,187.5 712.5,188.0 712.0,188.5 711.5,189.0 711.0,189.5 710.0,189.5 709.5,190.0 709.0,190.5 708.5,191.0 708.0,191.5 707.0,191.5 706.5,192.0 706.0,192.5 705.0,192.5 704.5,193.0 704.0,193.5 703.5,194.0 703.0,194.5 702.0,194.5 701.5,195.0 701.0,195.5 700.0,195.5 699.0,195.5 698.5,196.0 698.0,196.5 697.0,196.5 696.5,197.0 696.0,197.5 695.0,197.5 694.5,198.0 694.0,198.5 693.0,198.5 692.0,198.5 691.5,199.0 691.0,199.5 690.0,199.5 689.0,199.5 688.5,200.0 688.0,200.5 687.0,200.5 686.0,200.5 685.0,200.5 684.5,201.0 684.0,201.5 683.0,201.5 682.0,201.5 681.0,201.5 680.5,202.0 680.0,202.5 679.0,202.5 678.0,202.5 677.0,202.5 676.0,202.5 675.5,203.0 675.0,203.5 674.0,203.5 673.0,203.5 672.0,203.5 671.0,203.5 670.0,203.5 669.0,203.5 668.0,203.5 667.5,204.0 667.0,204.5 666.0,204.5 665.0,204.5 664.0,204.5 663.0,204.5 662.0,204.5 661.0,204.5 660.0,204.5 659.0,204.5 658.5,205.0 658.5,206.0 659.0,206.5 659.5,207.0 659.5,208.0 659.5,209.0 659.5,210.0 659.5,211.0 659.5,212.0 659.5,213.0 659.5,214.0 659.5,215.0 660.0,215.5 660.5,216.0 660.5,217.0 660.5,218.0 660.5,219.0 660.5,220.0 660.5,221.0 660.5,222.0 660.5,223.0 660.5,224.0 660.5,225.0 660.5,226.0 660.5,227.0 660.5,228.0 660.5,229.0 660.5,230.0 660.5,231.0 660.5,232.0 660.5,233.0 660.5,234.0 660.5,235.0 660.5,236.0 660.5,237.0 660.5,238.0 660.5,239.0 660.5,240.0 660.5,241.0 660.5,242.0 660.5,243.0 660.5,244.0 660.5,245.0 661.0,245.5 661.5,246.0 661.5,247.0 661.5,248.0 661.5,249.0 661.5,250.0 661.5,251.0 661.5,252.0 661.5,253.0 661.5,254.0 661.5,255.0 661.5,256.0 661.5,257.0 661.5,258.0 661.5,259.0 661.5,260.0 661.5,261.0 662.0,261.5 662.5,262.0 662.5,263.0 662.5,264.0 662.5,265.0 663.0,265.5 663.5,266.0 663.5,267.0 663.5,268.0 663.5,269.0 664.0,269.5 664.5,270.0 664.5,271.0 664.5,272.0 664.5,273.0 665.0,273.5 665.5,274.0 665.5,275.0 665.5,276.0 665.5,277.0 665.5,278.0 666.0,278.5 666.5,279.0 666.5,280.0 666.5,281.0 666.5,282.0 666.5,283.0 667.0,283.5 667.5,284.0 667.5,285.0 667.5,286.0 667.5,287.0 667.5,288.0 667.5,289.0 668.0,289.5 668.5,290.0 668.5,291.0 668.5,292.0 668.5,293.0 668.5,294.0 668.5,295.0 668.5,296.0 668.5,297.0 669.0,297.5 669.5,298.0 669.5,299.0 669.5,300.0 669.5,301.0 669.5,302.0 669.5,303.0 669.5,304.0 669.5,305.0 669.5,306.0 669.5,307.0 669.5,308.0 669.5,309.0 669.5,310.0 669.5,311.0 669.5,312.0 669.5,313.0 669.5,314.0 669.5,315.0 669.5,316.0 669.5,317.0 669.5,318.0 669.5,319.0 669.5,320.0 669.5,321.0 669.5,322.0 669.5,323.0 669.5,324.0 669.0,324.5 668.5,325.0 668.5,326.0 668.5,327.0 668.5,328.0 668.5,329.0 668.5,330.0 668.0,330.5 667.5,331.0 667.5,332.0 667.5,333.0 667.5,334.0 667.5,335.0 667.0,335.5 666.5,336.0 666.5,337.0 666.5,338.0 666.5,339.0 666.0,339.5 665.5,340.0 665.5,341.0 665.5,342.0 665.0,342.5 664.5,343.0 664.5,344.0 664.0,344.5 663.5,345.0 663.5,346.0 663.5,347.0 663.0,347.5 662.5,348.0 662.5,349.0 662.0,349.5 661.5,350.0 661.5,351.0 661.0,351.5 660.5,352.0 660.5,353.0 660.0,353.5 659.5,354.0 659.5,355.0 659.0,355.5 658.5,356.0 658.0,356.5 657.5,357.0 657.5,358.0 657.0,358.5 656.5,359.0 656.0,359.5 655.5,360.0 655.5,361.0 655.0,361.5 654.5,362.0 654.0,362.5 653.5,363.0 653.5,364.0 653.0,364.5 652.5,365.0 652.0,365.5 651.5,366.0 651.0,366.5 650.5,367.0 650.0,367.5 649.5,368.0 649.0,368.5 648.5,369.0 648.0,369.5 647.5,370.0 647.0,370.5 646.5,371.0 646.0,371.5 645.5,372.0 645.0,372.5 644.5,373.0 644.0,373.5 643.5,374.0 643.0,374.5 642.5,375.0 642.0,375.5 641.5,376.0 641.0,376.5 640.0,376.5 639.5,377.0 639.0,377.5 638.5,378.0 638.0,378.5 637.5,379.0 637.0,379.5 636.5,380.0 636.0,380.5 635.0,380.5 634.5,381.0 634.0,381.5 633.5,382.0 633.0,382.5 632.0,382.5 631.5,383.0 631.0,383.5 630.5,384.0 630.0,384.5 629.0,384.5 628.5,385.0 628.0,385.5 627.0,385.5 626.5,386.0 626.0,386.5 625.0,386.5 624.5,387.0 624.0,387.5 623.5,388.0 623.0,388.5 622.0,388.5 621.5,389.0 621.0,389.5 620.0,389.5 619.5,390.0 619.0,390.5 618.0,390.5 617.0,390.5 616.5,391.0 616.0,391.5 615.0,391.5 614.5,392.0 614.0,392.5 613.0,392.5 612.5,393.0 612.0,393.5 611.0,393.5 610.0,393.5 609.5,394.0 609.0,394.5 608.0,394.5 607.5,395.0 607.0,395.5 606.0,395.5 605.0,395.5 604.5,396.0 604.0,396.5 603.0,396.5 602.0,396.5 601.5,397.0 602.0,397.5 603.0,397.5 604.0,397.5 605.0,397.5 606.0,397.5 606.5,398.0 607.0,398.5 608.0,398.5 609.0,398.5 610.0,398.5 611.0,398.5 612.0,398.5 613.0,398.5 614.0,398.5 614.5,399.0 615.0,399.5 616.0,399.5 617.0,399.5 618.0,399.5 618.5,400.0 619.0,400.5 620.0,400.5 621.0,400.5 621.5,401.0 622.0,401.5 623.0,401.5 623.5,402.0 624.0,402.5 625.0,402.5 625.5,403.0 626.0,403.5 627.0,403.5 627.5,404.0 628.0,404.5 628.5,405.0 629.0,405.5 630.0,405.5 630.5,406.0 631.0,406.5 631.5,407.0 632.0,407.5 633.0,407.5 633.5,408.0 634.0,408.5 634.5,408.0 635.0,407.5 636.0,407.5 636.5,407.0 637.0,406.5 638.0,406.5 638.5,406.0 639.0,405.5 640.0,405.5 641.0,405.5 641.5,405.0 642.0,404.5 643.0,404.5 644.0,404.5 644.5,404.0 645.0,403.5 646.0,403.5 647.0,403.5 648.0,403.5 649.0,403.5 649.5,403.0 650.0,402.5 651.0,402.5 652.0,402.5 653.0,402.5 654.0,402.5 655.0,402.5 656.0,402.5 657.0,402.5 658.0,402.5 659.0,402.5 660.0,402.5 661.0,402.5 662.0,402.5 662.5,403.0 663.0,403.5 664.0,403.5 665.0,403.5 666.0,403.5 667.0,403.5 668.0,403.5 668.5,404.0 669.0,404.5 670.0,404.5 671.0,404.5 671.5,405.0 672.0,405.5 673.0,405.5 674.0,405.5 674.5,406.0 675.0,406.5 676.0,406.5 676.5,407.0 677.0,407.5 678.0,407.5 679.0,407.5 679.5,408.0 680.0,408.5 680.5,409.0 681.0,409.5 682.0,409.5 682.5,410.0 683.0,410.5 684.0,410.5 684.5,411.0 685.0,411.5 685.5,412.0 686.0,412.5 687.0,412.5 687.5,413.0 688.0,413.5 688.5,414.0 689.0,414.5 690.0,414.5 690.5,415.0 691.0,415.5 691.5,416.0 692.0,416.5 692.5,417.0 693.0,417.5 693.5,418.0 694.0,418.5 694.5,419.0 695.0,419.5 695.5,420.0 696.0,420.5 696.5,421.0 697.0,421.5 697.5,422.0 698.0,422.5 698.5,423.0 699.0,423.5 699.5,424.0 700.0,424.5 700.5,425.0 701.0,425.5 701.5,426.0 702.0,426.5 702.5,427.0 702.5,428.0 703.0,428.5 703.5,429.0 704.0,429.5 704.5,430.0 705.0,430.5 705.5,431.0 705.5,432.0 706.0,432.5 706.5,433.0 707.0,433.5 707.5,434.0 707.5,435.0 708.0,435.5 708.5,436.0 709.0,436.5 709.5,437.0 709.5,438.0 710.0,438.5 710.5,439.0 710.5,440.0 711.0,440.5 711.5,441.0 712.0,441.5 712.5,442.0 712.5,443.0 713.0,443.5 713.5,444.0 713.5,445.0 714.0,445.5 714.5,446.0 714.5,447.0 715.0,447.5 715.5,448.0 715.5,449.0 716.0,449.5 716.5,450.0 716.5,451.0 717.0,451.5 717.5,452.0 717.5,453.0 718.0,453.5 718.5,454.0 718.5,455.0 719.0,455.5 719.5,456.0 719.5,457.0 720.0,457.5 720.5,458.0 720.5,459.0 721.0,459.5 721.5,460.0 721.5,461.0 722.0,461.5 722.5,462.0 722.5,463.0 722.5,464.0 723.0,464.5 723.5,465.0 723.5,466.0 724.0,466.5 724.5,467.0 724.5,468.0 725.0,468.5 725.5,469.0 725.5,470.0 725.5,471.0 726.0,471.5 726.5,472.0 726.5,473.0 726.5,474.0 727.0,474.5 727.5,475.0 727.5,476.0 728.0,476.5 728.5,477.0 728.5,478.0 728.5,479.0 729.0,479.5 729.5,480.0 729.5,481.0 729.5,482.0 730.0,482.5 730.5,483.0 730.5,484.0 730.5,485.0 731.0,485.5 731.5,486.0 731.5,487.0 731.5,488.0 732.0,488.5 732.5,489.0 732.5,490.0 732.5,491.0 733.0,491.5 733.5,492.0 733.5,493.0 733.5,494.0 734.0,494.5 734.5,495.0 734.5,496.0 734.5,497.0 735.0,497.5 735.5,498.0 735.5,499.0 735.5,500.0 736.0,500.5 736.5,501.0 736.5,502.0 736.5,503.0 736.5,504.0 737.0,504.5 737.5,505.0 737.5,506.0 737.5,507.0 738.0,507.5 738.5,508.0 738.5,509.0 738.5,510.0 738.5,511.0 739.0,511.5 739.5,512.0 739.5,513.0 739.5,514.0 739.5,515.0 740.0,515.5 740.5,516.0 740.5,517.0 740.5,518.0 740.5,519.0 741.0,519.5 741.5,520.0 741.5,521.0 741.5,522.0 741.5,523.0 742.0,523.5 742.5,524.0 742.5,525.0 742.5,526.0 742.5,527.0 743.0,527.5 743.5,528.0 743.5,529.0 743.5,530.0 743.5,531.0 743.5,532.0 744.0,532.5 744.5,533.0 744.5,534.0 744.5,535.0 744.5,536.0 745.0,536.5 745.5,537.0 745.5,538.0 745.5,539.0 745.5,540.0 745.5,541.0 746.0,541.5 746.5,542.0 746.5,543.0 746.5,544.0 746.5,545.0 746.5,546.0 747.0,546.5 747.5,547.0 747.5,548.0 747.5,549.0 747.5,550.0 747.5,551.0 747.5,552.0 748.0,552.5 748.5,553.0 748.5,554.0 748.5,555.0 748.5,556.0 748.5,557.0 748.5,558.0 749.0,558.5 749.5,559.0 749.5,560.0 749.5,561.0 749.5,562.0 749.5,563.0 749.5,564.0 750.0,564.5 750.5,565.0 750.5,566.0 750.5,567.0 750.5,568.0 750.5,569.0 750.5,570.0 751.0,570.5 751.5,571.0 751.5,572.0 751.5,573.0 751.5,574.0 751.5,575.0 751.5,576.0 751.5,577.0 751.5,578.0 752.0,578.5 752.5,579.0 752.5,580.0 752.5,581.0 752.5,582.0 752.5,583.0 752.5,584.0 752.5,585.0 752.5,586.0 753.0,586.5 753.5,587.0 753.5,588.0 753.5,589.0 753.5,590.0 753.5,591.0 753.5,592.0 753.5,593.0 753.5,594.0 753.5,595.0 754.0,595.5 754.5,596.0 754.5,597.0 754.5,598.0 754.5,599.0 754.5,600.0 754.5,601.0 754.5,602.0 754.5,603.0 754.5,604.0 754.5,605.0 755.0,605.5 755.5,606.0 755.5,607.0 755.5,608.0 755.5,609.0 755.5,610.0 755.5,611.0 755.5,612.0 755.5,613.0 755.5,614.0 755.5,615.0 755.5,616.0 755.5,617.0 755.5,618.0 755.5,619.0 755.5,620.0 756.0,620.5 756.5,621.0 756.5,622.0 756.5,623.0 756.5,624.0 756.5,625.0 756.5,626.0 756.5,627.0 756.5,628.0 756.5,629.0 756.5,630.0 756.5,631.0 756.5,632.0 756.5,633.0 756.5,634.0 756.5,635.0 756.5,636.0 756.5,637.0 756.5,638.0 756.5,639.0 756.5,640.0 756.5,641.0 756.5,642.0 756.5,643.0 756.5,644.0 756.5,645.0 756.5,646.0 756.5,647.0 756.5,648.0 756.5,649.0 756.5,650.0 756.5,651.0 756.5,652.0 756.5,653.0 756.5,654.0 756.5,655.0 756.5,656.0 756.5,657.0 756.5,658.0 756.5,659.0 756.5,660.0 756.5,661.0 756.5,662.0 756.5,663.0 756.5,664.0 756.5,665.0 756.5,666.0 756.5,667.0 756.5,668.0 756.5,669.0 756.5,670.0 756.0,670.5 755.5,671.0 755.5,672.0 755.5,673.0 755.5,674.0 755.5,675.0 755.5,676.0 756.0,676.5 756.5,677.0 756.5,678.0 757.0,678.5 757.5,679.0 757.5,680.0 758.0,680.5 758.5,681.0 758.5,682.0 759.0,682.5 759.5,683.0 759.5,684.0 760.0,684.5 760.5,685.0 760.5,686.0 761.0,686.5 761.5,687.0 761.5,688.0 761.5,689.0 762.0,689.5 762.5,690.0 762.5,691.0 762.5,692.0 763.0,692.5 763.5,693.0 763.5,694.0 763.5,695.0 764.0,695.5 764.5,696.0 764.5,697.0 764.5,698.0 764.5,699.0 765.0,699.5 765.5,700.0 765.5,701.0 765.5,702.0 765.5,703.0 765.5,704.0 765.5,705.0 766.0,705.5 766.5,706.0 766.5,707.0 766.5,708.0 766.5,709.0 766.5,710.0 766.5,711.0 766.5,712.0 766.5,713.0 766.5,714.0 766.5,715.0 766.5,716.0 766.5,717.0 766.5,718.0 766.5,719.0 766.5,720.0 766.5,721.0 766.5,722.0 766.5,723.0 766.5,724.0 766.0,724.5 765.5,725.0 765.5,726.0 765.5,727.0 765.5,728.0 765.5,729.0 765.0,729.5 764.5,730.0 764.5,731.0 764.5,732.0 764.0,732.5 763.5,733.0 763.5,734.0 763.5,735.0 763.0,735.5 762.5,736.0 762.5,737.0 762.5,738.0 762.0,738.5 761.5,739.0 761.5,740.0 761.0,740.5 760.5,741.0 760.5,742.0 760.0,742.5 759.5,743.0 759.5,744.0 759.0,744.5 758.5,745.0 758.5,746.0 758.0,746.5 757.5,747.0 757.0,747.5 756.5,748.0 756.5,749.0 756.0,749.5 755.5,750.0 755.0,750.5 754.5,751.0 754.0,751.5 753.5,752.0 753.5,753.0 753.0,753.5 752.5,754.0 752.0,754.5 751.5,755.0 751.0,755.5 750.5,756.0 750.0,756.5 749.5,757.0 749.0,757.5 748.5,758.0 748.0,758.5 747.5,759.0 747.0,759.5 746.5,760.0 746.0,760.5 745.5,761.0 745.0,761.5 744.0,761.5 743.5,762.0 743.0,762.5 742.5,763.0 742.0,763.5 741.5,764.0 741.0,764.5 740.0,764.5 739.5,765.0 739.0,765.5 738.0,765.5 737.5,766.0 737.0,766.5 736.5,767.0 736.0,767.5 735.0,767.5 734.5,768.0 734.0,768.5 733.0,768.5 732.5,769.0 732.0,769.5 731.0,769.5 730.0,769.5 729.5,770.0 729.0,770.5 728.0,770.5 727.5,771.0 727.0,771.5 726.0,771.5 725.0,771.5 724.0,771.5 723.5,772.0 723.0,772.5 722.0,772.5 721.0,772.5 720.0,772.5 719.5,773.0 719.0,773.5 718.0,773.5 717.0,773.5 716.0,773.5 715.0,773.5 714.0,773.5 713.0,773.5 712.0,773.5 711.0,773.5 710.0,773.5 709.0,773.5 708.0,773.5 707.0,773.5 706.0,773.5 705.0,773.5 704.5,773.0 704.0,772.5 703.0,772.5 702.0,772.5 701.0,772.5 700.5,772.0 700.0,771.5 699.0,771.5 698.0,771.5 697.5,771.0 697.0,770.5 696.0,770.5 695.5,770.0 695.0,769.5 694.5,769.0 694.0,768.5 693.0,768.5 692.5,768.0 692.0,767.5 691.5,767.0 691.0,766.5 690.5,766.0 690.0,765.5 689.5,765.0 689.0,764.5 688.5,764.0 688.5,763.0 688.0,762.5 687.5,762.0 687.0,761.5 686.5,761.0 686.5,760.0 686.5,759.0 686.0,758.5 685.0,758.5 684.0,758.5 683.0,758.5 682.0,758.5 681.0,758.5 680.0,758.5 679.5,758.0 679.0,757.5 678.0,757.5 677.0,757.5 676.0,757.5 675.5,757.0 675.0,756.5 674.0,756.5 673.5,756.0 673.0,755.5 672.0,755.5 671.5,755.0 671.0,754.5 670.0,754.5 669.5,754.0 669.0,753.5 668.0,753.5 667.5,753.0 667.0,752.5 666.5,752.0 666.0,751.5 665.0,751.5 664.5,751.0 664.0,750.5 663.5,750.0 663.0,749.5 662.5,749.0 662.0,748.5 661.5,748.0 661.0,747.5 660.5,747.0 660.0,746.5 659.5,746.0 659.0,745.5 658.5,745.0 658.5,744.0 658.0,743.5 657.5,743.0 657.0,742.5 656.5,742.0 656.5,741.0 656.0,740.5 655.5,740.0 655.5,739.0 655.0,738.5 654.5,738.0 654.5,737.0 654.0,736.5 653.5,736.0 653.5,735.0 653.5,734.0 653.5,733.0 653.0,732.5 652.5,732.0 652.5,731.0 652.5,730.0 652.5,729.0 652.5,728.0 652.0,727.5 651.5,727.0 651.5,726.0 651.5,725.0 651.5,724.0 651.5,723.0 651.5,722.0 651.5,721.0 651.5,720.0 651.5,719.0 651.5,718.0 651.5,717.0 652.0,716.5 652.5,716.0 652.5,715.0 652.5,714.0 652.5,713.0 652.5,712.0 652.5,711.0 652.5,710.0 653.0,709.5 653.5,709.0 653.5,708.0 653.5,707.0 654.0,706.5 654.5,706.0 654.5,705.0 654.5,704.0 654.5,703.0 655.0,702.5 655.5,702.0 655.5,701.0 655.5,700.0 656.0,699.5 656.5,699.0 656.5,698.0 657.0,697.5 657.5,697.0 657.5,696.0 658.0,695.5 658.5,695.0 658.5,694.0 658.5,693.0 659.0,692.5 659.5,692.0 659.5,691.0 660.0,690.5 660.5,690.0 660.5,689.0 661.0,688.5 661.5,688.0 661.5,687.0 662.0,686.5 662.5,686.0 663.0,685.5 663.5,685.0 663.5,684.0 664.0,683.5 664.5,683.0 664.5,682.0 665.0,681.5 665.5,681.0 666.0,680.5 666.5,680.0 666.5,679.0 667.0,678.5 667.5,678.0 668.0,677.5 668.5,677.0 668.5,676.0 668.5,675.0 668.5,674.0 668.5,673.0 668.5,672.0 668.5,671.0 668.5,670.0 668.5,669.0 668.5,668.0 668.5,667.0 668.5,666.0 668.5,665.0 668.5,664.0 668.5,663.0 668.5,662.0 668.5,661.0 668.5,660.0 668.5,659.0 668.5,658.0 668.5,657.0 668.5,656.0 668.5,655.0 668.5,654.0 668.5,653.0 668.5,652.0 668.5,651.0 668.5,650.0 668.5,649.0 668.0,648.5 667.5,648.0 667.5,647.0 667.5,646.0 667.5,645.0 667.5,644.0 667.5,643.0 667.5,642.0 667.5,641.0 667.5,640.0 667.5,639.0 667.5,638.0 667.5,637.0 667.5,636.0 667.5,635.0 667.5,634.0 667.5,633.0 667.5,632.0 667.5,631.0 667.5,630.0 667.5,629.0 667.0,628.5 666.5,628.0 666.5,627.0 666.5,626.0 666.5,625.0 666.5,624.0 666.5,623.0 666.5,622.0 666.5,621.0 666.5,620.0 666.5,619.0 666.5,618.0 666.5,617.0 666.5,616.0 666.5,615.0 666.5,614.0 666.5,613.0 666.5,612.0 666.5,611.0 666.5,610.0 666.5,609.0 666.5,608.0 666.5,607.0 666.5,606.0 666.5,605.0 666.0,604.5 665.5,604.0 665.5,603.0 665.5,602.0 665.5,601.0 665.5,600.0 665.5,599.0 665.5,598.0 665.5,597.0 665.5,596.0 665.5,595.0 665.5,594.0 665.5,593.0 665.0,592.5 664.5,592.0 664.5,591.0 664.5,590.0 664.5,589.0 664.5,588.0 664.5,587.0 664.5,586.0 664.5,585.0 664.5,584.0 664.5,583.0 664.0,582.5 663.5,582.0 663.5,581.0 663.5,580.0 663.5,579.0 663.5,578.0 663.5,577.0 663.5,576.0 663.0,575.5 662.5,575.0 662.5,574.0 662.5,573.0 662.5,572.0 662.5,571.0 662.5,570.0 662.5,569.0 662.0,568.5 661.5,568.0 661.5,567.0 661.5,566.0 661.5,565.0 661.5,564.0 661.5,563.0 661.0,562.5 660.5,562.0 660.5,561.0 660.5,560.0 660.5,559.0 660.5,558.0 660.0,557.5 659.5,557.0 659.5,556.0 659.5,555.0 659.5,554.0 659.5,553.0 659.0,552.5 658.5,552.0 658.5,551.0 658.5,550.0 658.5,549.0 658.5,548.0 658.0,547.5 657.5,547.0 657.5,546.0 657.5,545.0 657.5,544.0 657.0,543.5 656.5,543.0 656.5,542.0 656.5,541.0 656.5,540.0 656.0,539.5 655.5,539.0 655.5,538.0 655.5,537.0 655.0,536.5 654.5,536.0 654.5,535.0 654.5,534.0 654.5,533.0 654.0,532.5 653.5,532.0 653.5,531.0 653.5,530.0 653.0,529.5 652.5,529.0 652.5,528.0 652.5,527.0 652.0,526.5 651.5,526.0 651.5,525.0 651.5,524.0 651.0,523.5 650.5,523.0 650.5,522.0 650.5,521.0 650.0,520.5 649.5,520.0 649.5,519.0 649.0,518.5 648.5,518.0 648.5,517.0 648.5,516.0 648.0,515.5 647.5,515.0 647.5,514.0 647.0,513.5 646.5,513.0 646.5,512.0 646.5,511.0 646.0,510.5 645.5,510.0 645.5,509.0 645.0,508.5 644.5,508.0 644.5,507.0 644.0,506.5 643.5,506.0 643.5,505.0 643.0,504.5 642.5,504.0 642.5,503.0 642.0,502.5 641.5,503.0 641.5,504.0 641.5,505.0 642.0,505.5 642.5,506.0 642.5,507.0 642.5,508.0 642.5,509.0 642.5,510.0 642.5,511.0 643.0,511.5 643.5,512.0 643.5,513.0 643.5,514.0 643.5,515.0 643.5,516.0 643.5,517.0 643.5,518.0 644.0,518.5 644.5,519.0 644.5,520.0 644.5,521.0 644.5,522.0 644.5,523.0 644.5,524.0 645.0,524.5 645.5,525.0 645.5,526.0 645.5,527.0 645.5,528.0 645.5,529.0 645.5,530.0 645.5,531.0 646.0,531.5 646.5,532.0 646.5,533.0 646.5,534.0 646.5,535.0 646.5,536.0 646.5,537.0 647.0,537.5 647.5,538.0 647.5,539.0 647.5,540.0 647.5,541.0 647.5,542.0 647.5,543.0 647.5,544.0 648.0,544.5 648.5,545.0 648.5,546.0 648.5,547.0 648.5,548.0 648.5,549.0 648.5,550.0 648.5,551.0 649.0,551.5 649.5,552.0 649.5,553.0 649.5,554.0 649.5,555.0 649.5,556.0 649.5,557.0 649.5,558.0 650.0,558.5 650.5,559.0 650.5,560.0 650.5,561.0 650.5,562.0 650.5,563.0 650.5,564.0 650.5,565.0 651.0,565.5 651.5,566.0 651.5,567.0 651.5,568.0 651.5,569.0 651.5,570.0 651.5,571.0 651.5,572.0 651.5,573.0 651.5,574.0 652.0,574.5 652.5,575.0 652.5,576.0 652.5,577.0 652.5,578.0 652.5,579.0 652.5,580.0 652.5,581.0 652.5,582.0 652.5,583.0 653.0,583.5 653.5,584.0 653.5,585.0 653.5,586.0 653.5,587.0 653.5,588.0 653.5,589.0 653.5,590.0 653.5,591.0 653.5,592.0 653.5,593.0 653.5,594.0 653.5,595.0 653.5,596.0 653.5,597.0 653.5,598.0 653.5,599.0 653.5,600.0 654.0,600.5 654.5,601.0 654.5,602.0 654.5,603.0 654.5,604.0 654.5,605.0 654.5,606.0 654.5,607.0 654.5,608.0 654.5,609.0 654.0,609.5 653.5,610.0 653.5,611.0 653.5,612.0 653.5,613.0 653.5,614.0 653.5,615.0 653.5,616.0 653.5,617.0 653.5,618.0 653.5,619.0 653.0,619.5 652.5,620.0 652.5,621.0 652.5,622.0 652.5,623.0 652.5,624.0 652.0,624.5 651.5,625.0 651.5,626.0 651.5,627.0 651.0,627.5 650.5,628.0 650.5,629.0 650.5,630.0 650.0,630.5 649.5,631.0 649.5,632.0 649.0,632.5 648.5,633.0 648.5,634.0 648.0,634.5 647.5,635.0 647.5,636.0 647.0,636.5 646.5,637.0 646.5,638.0 646.0,638.5 645.5,639.0 645.0,639.5 644.5,640.0 644.5,641.0 644.0,641.5 643.5,642.0 643.0,642.5 642.5,643.0 642.0,643.5 641.5,644.0 641.0,644.5 640.5,645.0 640.0,645.5 639.5,646.0 639.0,646.5 638.5,647.0 638.0,647.5 637.5,648.0 637.0,648.5 636.5,649.0 636.0,649.5 635.5,650.0 635.0,650.5 634.5,651.0 634.0,651.5 633.5,652.0 633.0,652.5 632.5,653.0 632.5,654.0 632.5,655.0 632.5,656.0 632.5,657.0 632.5,658.0 632.5,659.0 632.5,660.0 632.5,661.0 632.5,662.0 632.5,663.0 632.0,663.5 631.5,664.0 631.5,665.0 631.5,666.0 631.5,667.0 631.5,668.0 631.5,669.0 631.5,670.0 631.5,671.0 631.5,672.0 631.5,673.0 631.5,674.0 631.5,675.0 631.5,676.0 631.5,677.0 631.5,678.0 631.5,679.0 631.5,680.0 631.0,680.5 630.5,681.0 630.5,682.0 630.5,683.0 630.5,684.0 630.5,685.0 630.5,686.0 630.5,687.0 630.5,688.0 630.5,689.0 630.5,690.0 630.5,691.0 630.5,692.0 630.5,693.0 630.5,694.0 630.5,695.0 630.5,696.0 630.5,697.0 630.0,697.5 629.5,698.0 629.0,698.5 628.0,698.5 627.0,698.5 626.0,698.5 625.0,698.5 624.0,698.5 623.0,698.5 622.0,698.5 621.0,698.5 620.0,698.5 619.0,698.5 618.0,698.5 617.0,698.5 616.0,698.5 615.0,698.5 614.0,698.5 613.0,698.5 612.0,698.5 611.0,698.5 610.0,698.5 609.0,698.5 608.0,698.5 607.0,698.5 606.0,698.5 605.0,698.5 604.0,698.5 603.0,698.5 602.0,698.5 601.0,698.5 600.0,698.5 599.0,698.5 598.0,698.5 597.0,698.5 596.0,698.5 595.0,698.5 594.0,698.5 593.0,698.5 592.0,698.5 591.0,698.5 590.0,698.5 589.0,698.5 588.0,698.5 587.0,698.5 586.0,698.5 585.0,698.5 584.0,698.5 583.0,698.5 582.0,698.5 581.0,698.5 580.0,698.5 579.0,698.5 578.0,698.5 577.0,698.5 576.0,698.5 575.0,698.5 574.0,698.5 573.0,698.5 572.0,698.5 571.0,698.5 570.0,698.5 569.0,698.5 568.0,698.5 567.0,698.5 566.0,698.5 565.0,698.5 564.5,699.0 564.0,699.5 563.0,699.5 562.0,699.5 561.0,699.5 560.5,700.0 560.0,700.5 559.0,700.5 558.0,700.5 557.5,701.0 557.0,701.5 556.0,701.5 555.5,702.0 555.0,702.5 554.0,702.5 553.5,703.0 553.0,703.5 552.5,704.0 552.0,704.5 551.5,705.0 551.0,705.5 550.5,706.0 550.0,706.5 549.5,707.0 549.0,707.5 548.5,708.0 548.0,708.5 547.5,709.0 547.0,709.5 546.5,710.0 546.5,711.0 546.0,711.5 545.5,712.0 545.5,713.0 545.0,713.5 544.5,714.0 544.5,715.0 544.0,715.5 543.5,716.0 543.5,717.0 543.5,718.0 543.0,718.5 542.5,719.0 542.5,720.0 542.5,721.0 542.5,722.0 542.5,723.0 542.0,723.5 541.5,724.0 541.5,725.0 541.5,726.0 542.0,726.5 542.5,726.0 543.0,725.5 543.5,725.0 543.5,724.0 544.0,723.5 544.5,723.0 544.5,722.0 545.0,721.5 545.5,721.0 546.0,720.5 546.5,720.0 547.0,719.5 547.5,719.0 548.0,718.5 549.0,718.5 549.5,718.0 550.0,717.5 550.5,717.0 551.0,716.5 551.5,716.0 552.0,715.5 553.0,715.5 553.5,715.0 554.0,714.5 555.0,714.5 555.5,714.0 556.0,713.5 557.0,713.5 558.0,713.5 558.5,713.0 559.0,712.5 560.0,712.5 561.0,712.5 561.5,712.0 562.0,711.5 563.0,711.5 564.0,711.5 565.0,711.5 566.0,711.5 567.0,711.5 568.0,711.5 569.0,711.5 570.0,711.5 571.0,711.5 572.0,711.5 573.0,711.5 574.0,711.5 575.0,711.5 576.0,711.5 577.0,711.5 578.0,711.5 579.0,711.5 580.0,711.5 581.0,711.5 582.0,711.5 583.0,711.5 584.0,711.5 585.0,711.5 586.0,711.5 587.0,711.5 588.0,711.5 589.0,711.5 590.0,711.5 591.0,711.5 592.0,711.5 593.0,711.5 594.0,711.5 595.0,711.5 596.0,711.5 597.0,711.5 598.0,711.5 599.0,711.5 600.0,711.5 601.0,711.5 602.0,711.5 603.0,711.5 604.0,711.5 605.0,711.5 606.0,711.5 607.0,711.5 608.0,711.5 609.0,711.5 610.0,711.5 611.0,711.5 612.0,711.5 613.0,711.5 614.0,711.5 615.0,711.5 616.0,711.5 617.0,711.5 618.0,711.5 619.0,711.5 620.0,711.5 621.0,711.5 622.0,711.5 623.0,711.5 624.0,711.5 625.0,711.5 625.5,712.0 626.0,712.5 627.0,712.5 628.0,712.5 628.5,713.0 629.0,713.5 630.0,713.5 630.5,714.0 631.0,714.5 632.0,714.5 632.5,715.0 633.0,715.5 634.0,715.5 634.5,716.0 635.0,716.5 635.5,717.0 636.0,717.5 636.5,718.0 637.0,718.5 637.5,719.0 638.0,719.5 638.5,720.0 639.0,720.5 639.5,721.0 640.0,721.5 640.5,722.0 640.5,723.0 641.0,723.5 641.5,724.0 642.0,724.5 642.5,725.0 642.5,726.0 643.0,726.5 643.5,727.0 643.5,728.0 644.0,728.5 644.5,729.0 644.5,730.0 645.0,730.5 645.5,731.0 645.5,732.0 645.5,733.0 645.5,734.0 646.0,734.5 646.5,735.0 646.5,736.0 646.5,737.0 646.5,738.0 647.0,738.5 647.5,739.0 647.5,740.0 647.5,741.0 647.5,742.0 647.5,743.0 647.5,744.0 647.5,745.0 647.5,746.0 647.5,747.0 647.5,748.0 647.5,749.0 647.5,750.0 647.5,751.0 647.5,752.0 647.5,753.0 647.5,754.0 647.5,755.0 647.5,756.0 647.5,757.0 647.5,758.0 647.5,759.0 647.5,760.0 647.5,761.0 647.5,762.0 647.5,763.0 647.5,764.0 647.5,765.0 647.5,766.0 647.5,767.0 647.5,768.0 647.5,769.0 647.5,770.0 647.5,771.0 647.5,772.0 647.5,773.0 647.5,774.0 647.5,775.0 647.5,776.0 647.5,777.0 647.5,778.0 647.5,779.0 647.5,780.0 647.5,781.0 647.5,782.0 647.5,783.0 647.5,784.0 647.5,785.0 647.5,786.0 647.5,787.0 647.5,788.0 647.5,789.0 647.5,790.0 647.5,791.0 647.5,792.0 647.5,793.0 647.5,794.0 647.5,795.0 647.5,796.0 647.5,797.0 647.5,798.0 647.5,799.0 647.5,800.0 647.5,801.0 647.5,802.0 647.5,803.0 647.5,804.0 647.5,805.0 647.5,806.0 647.5,807.0 647.5,808.0 647.5,809.0 647.5,810.0 647.5,811.0 647.5,812.0 647.5,813.0 647.5,814.0 647.5,815.0 647.5,816.0 647.5,817.0 647.5,818.0 647.5,819.0 647.5,820.0 647.5,821.0 647.5,822.0 647.5,823.0 647.5,824.0 647.5,825.0 647.5,826.0 647.5,827.0 647.5,828.0 647.5,829.0 647.5,830.0 647.5,831.0 647.5,832.0 647.5,833.0 647.5,834.0 647.5,835.0 647.5,836.0 647.5,837.0 647.5,838.0 647.5,839.0 647.5,840.0 647.5,841.0 647.5,842.0 647.5,843.0 647.5,844.0 647.5,845.0 647.5,846.0 647.5,847.0 647.5,848.0 647.5,849.0 647.5,850.0 647.5,851.0 647.5,852.0 647.5,853.0 647.5,854.0 647.5,855.0 647.5,856.0 647.5,857.0 647.5,858.0 647.5,859.0 647.5,860.0 647.5,861.0 647.5,862.0 647.5,863.0 647.5,864.0 647.5,865.0 647.5,866.0 647.5,867.0 647.5,868.0 647.5,869.0 647.5,870.0 647.5,871.0 647.5,872.0 647.5,873.0 647.5,874.0 647.5,875.0 647.5,876.0 647.5,877.0 647.5,878.0 647.5,879.0 647.5,880.0 647.5,881.0 647.5,882.0 647.5,883.0 647.5,884.0 647.5,885.0 647.5,886.0 647.5,887.0 647.5,888.0 647.5,889.0 647.5,890.0 647.5,891.0 647.5,892.0 647.5,893.0 647.5,894.0 647.5,895.0 647.5,896.0 647.5,897.0 647.5,898.0 647.5,899.0 647.5,900.0 647.5,901.0 647.5,902.0 647.5,903.0 647.5,904.0 647.5,905.0 647.5,906.0 647.5,907.0 647.5,908.0 647.5,909.0 647.5,910.0 647.5,911.0 647.5,912.0 647.5,913.0 647.5,914.0 647.5,915.0 647.5,916.0 647.5,917.0 647.5,918.0 647.5,919.0 647.5,920.0 647.5,921.0 647.5,922.0 647.5,923.0 647.5,924.0 647.5,925.0 647.5,926.0 647.5,927.0 647.5,928.0 647.5,929.0 647.5,930.0 647.5,931.0 647.5,932.0 647.5,933.0 647.5,934.0 647.5,935.0 647.5,936.0 647.5,937.0 647.5,938.0 647.5,939.0 647.5,940.0 647.5,941.0 647.5,942.0 647.5,943.0 647.5,944.0 647.5,945.0 647.5,946.0 647.5,947.0 647.5,948.0 647.5,949.0 647.5,950.0 647.5,951.0 647.5,952.0 647.5,953.0 647.5,954.0 647.5,955.0 647.5,956.0 647.5,957.0 647.5,958.0 647.5,959.0 647.5,960.0 647.5,961.0 647.5,962.0 647.5,963.0 647.5,964.0 647.5,965.0 647.5,966.0 647.5,967.0 647.5,968.0 647.5,969.0 647.5,970.0 647.5,971.0 647.5,972.0 647.5,973.0 647.0,973.5 646.5,974.0 646.5,975.0 646.0,975.5 645.5,976.0 645.5,977.0 645.0,977.5 644.5,978.0 644.5,979.0 644.0,979.5 643.5,980.0 643.0,980.5 642.5,981.0 642.0,981.5 641.5,982.0 641.0,982.5 640.0,982.5 639.5,983.0 639.0,983.5 638.0,983.5 637.5,984.0 637.0,984.5 636.0,984.5 635.5,985.0 635.0,985.5" stroke="black" stroke-width="1" /><polygon fill="black" points="323.5,739.0 324.0,738.5 325.0,738.5 326.0,738.5 326.5,738.0 327.0,737.5 327.5,737.0 328.0,736.5 329.0,736.5 329.5,736.0 330.0,735.5 330.5,735.0 331.0,734.5 331.5,734.0 332.0,733.5 332.5,733.0 333.0,732.5 333.5,732.0 334.0,731.5 334.5,731.0 334.5,730.0 335.0,729.5 335.5,729.0 335.5,728.0 335.5,727.0 336.0,726.5 336.5,726.0 336.5,725.0 336.5,724.0 336.5,723.0 337.0,722.5 337.5,722.0 337.5,721.0 337.5,720.0 337.5,719.0 337.0,718.5 336.5,718.0 336.5,717.0 336.5,716.0 336.5,715.0 336.0,714.5 335.5,714.0 335.5,713.0 335.5,712.0 335.0,711.5 334.5,711.0 334.0,710.5 333.5,710.0 333.5,709.0 333.0,708.5 332.5,708.0 332.0,707.5 331.5,707.0 331.0,706.5 330.5,706.0 330.0,705.5 329.0,705.5 328.5,705.0 328.0,704.5 327.5,704.0 327.0,703.5 326.0,703.5 325.5,703.0 325.0,702.5 324.0,702.5 323.0,702.5 322.0,702.5 321.5,702.0 321.0,701.5 320.0,701.5 319.0,701.5 318.0,701.5 317.0,701.5 316.0,701.5 315.0,701.5 314.0,701.5 313.5,702.0 313.0,702.5 312.0,702.5 311.0,702.5 310.5,703.0 310.0,703.5 309.0,703.5 308.5,704.0 308.0,704.5 307.0,704.5 306.5,705.0 306.0,705.5 305.5,706.0 305.0,706.5 304.5,707.0 304.0,707.5 303.5,708.0 303.0,708.5 302.5,709.0 302.0,709.5 301.5,710.0 301.5,711.0 301.0,711.5 300.5,712.0 300.5,713.0 300.0,713.5 299.5,714.0 299.5,715.0 299.5,716.0 299.0,716.5 298.5,717.0 298.5,718.0 298.5,719.0 298.5,720.0 298.5,721.0 298.5,722.0 298.5,723.0 298.5,724.0 298.5,725.0 299.0,725.5 299.5,726.0 299.5,727.0 299.5,728.0 300.0,728.5 300.5,729.0 300.5,730.0 301.0,730.5 301.5,731.0 301.5,732.0 302.0,732.5 302.5,733.0 303.0,733.5 303.5,734.0 304.0,734.5 304.5,735.0 305.0,735.5 305.5,736.0 306.0,736.5 307.0,736.5 307.5,737.0 308.0,737.5 309.0,737.5 309.5,738.0 310.0,738.5 311.0,738.5 311.5,739.0 312.0,739.5 313.0,739.5 314.0,739.5 315.0,739.5 316.0,739.5 317.0,739.5 318.0,739.5 319.0,739.5 320.0,739.5 321.0,739.5 322.0,739.5 323.0,739.5 323.5,739.0" stroke="black" stroke-width="1" /><polygon fill="black" points="711.5,739.0 712.0,738.5 713.0,738.5 714.0,738.5 714.5,738.0 715.0,737.5 716.0,737.5 716.5,737.0 717.0,736.5 717.5,736.0 718.0,735.5 718.5,735.0 719.0,734.5 719.5,734.0 720.0,733.5 720.5,733.0 721.0,732.5 721.5,732.0 722.0,731.5 722.5,731.0 722.5,730.0 723.0,729.5 723.5,729.0 723.5,728.0 724.0,727.5 724.5,727.0 724.5,726.0 724.5,725.0 725.0,724.5 725.5,724.0 725.5,723.0 725.5,722.0 725.5,721.0 725.5,720.0 725.5,719.0 725.5,718.0 725.0,717.5 724.5,717.0 724.5,716.0 724.5,715.0 724.5,714.0 724.0,713.5 723.5,713.0 723.5,712.0 723.0,711.5 722.5,711.0 722.5,710.0 722.0,709.5 721.5,709.0 721.0,708.5 720.5,708.0 720.0,707.5 719.5,707.0 719.0,706.5 718.5,706.0 718.0,705.5 717.5,705.0 717.0,704.5 716.0,704.5 715.5,704.0 715.0,703.5 714.0,703.5 713.5,703.0 713.0,702.5 712.0,702.5 711.0,702.5 710.5,702.0 710.0,701.5 709.0,701.5 708.0,701.5 707.0,701.5 706.0,701.5 705.0,701.5 704.0,701.5 703.0,701.5 702.0,701.5 701.5,702.0 701.0,702.5 700.0,702.5 699.0,702.5 698.5,703.0 698.0,703.5 697.0,703.5 696.5,704.0 696.0,704.5 695.0,704.5 694.5,705.0 694.0,705.5 693.5,706.0 693.0,706.5 692.5,707.0 692.0,707.5 691.5,708.0 691.0,708.5 690.5,709.0 690.0,709.5 689.5,710.0 689.5,711.0 689.0,711.5 688.5,712.0 688.5,713.0 688.0,713.5 687.5,714.0 687.5,715.0 687.5,716.0 687.0,716.5 686.5,717.0 686.5,718.0 686.5,719.0 686.5,720.0 686.5,721.0 686.5,722.0 686.5,723.0 686.5,724.0 687.0,724.5 687.5,725.0 687.5,726.0 687.5,727.0 688.0,727.5 688.5,728.0 688.5,729.0 689.0,729.5 689.5,730.0 689.5,731.0 690.0,731.5 690.5,732.0 691.0,732.5 691.5,733.0 692.0,733.5 692.5,734.0 693.0,734.5 693.5,735.0 694.0,735.5 694.5,736.0 695.0,736.5 695.5,737.0 696.0,737.5 697.0,737.5 697.5,738.0 698.0,738.5 699.0,738.5 700.0,738.5 700.5,739.0 701.0,739.5 702.0,739.5 703.0,739.5 704.0,739.5 705.0,739.5 706.0,739.5 707.0,739.5 708.0,739.5 709.0,739.5 710.0,739.5 711.0,739.5 711.5,739.0" stroke="black" stroke-width="1" /></svg>